<?xml version="1.0" encoding="UTF-8"?>
<svg xmlns="http://www.w3.org/2000/svg" viewBox="0 0 450 766.01">
  <defs>
    <style>
      .cls-1 {
        fill: #fff;
      }

      .cls-2 {
        fill: #fdbc33;
      }

      .cls-3 {
        fill: none;
        stroke: #fff;
        stroke-miterlimit: 10;
      }

      .cls-4 {
        fill: #e21d37;
      }

      .cls-5 {
        fill: #54ba60;
      }

      .cls-6 {
        fill: #11497f;
      }

      .cls-7 {
        fill: #fdbc31;
      }
    </style>
  </defs>
  <g id="Layer_2" data-name="Layer 2">
    <rect class="cls-6" x="0" width="450" height="345.13"/>
    <rect class="cls-4" x=".37" y="345.13" width="450" height="202.2"/>
    <rect class="cls-4" x="0" y="547.33" width="450" height="218.68"/>
  </g>
  <g id="Layer_3" data-name="Layer 3">
    <g>
      <path class="cls-1" d="M136.55,33.77v-12.6h3.68c1.12,0,2,.26,2.65,.78s.97,1.23,.97,2.12c0,.71-.19,1.33-.58,1.85s-.92,.9-1.6,1.12v.04c.85,.1,1.53,.42,2.03,.96s.76,1.24,.76,2.1c0,1.08-.39,1.96-1.17,2.63s-1.77,1-2.97,1h-3.78Zm1.6-11.2v3.97h1.49c.79,0,1.4-.19,1.85-.57s.68-.91,.68-1.6c0-.61-.2-1.06-.6-1.36s-.99-.45-1.78-.45h-1.64Zm0,5.38v4.41h1.96c.85,0,1.51-.2,1.97-.6s.7-.95,.7-1.65-.25-1.25-.74-1.62-1.23-.54-2.21-.54h-1.69Z"/>
      <path class="cls-1" d="M145.71,33.77l4.81-12.6h1.71l4.82,12.6h-1.78l-1.23-3.3h-5.38l-1.17,3.3h-1.78Zm3.45-4.71h4.38l-1.98-5.42c-.04-.09-.08-.21-.11-.35s-.06-.31-.1-.5h-.04c-.03,.18-.06,.33-.09,.47s-.07,.26-.11,.37l-1.96,5.43Z"/>
      <path class="cls-1" d="M169.31,33.77h-1.91l-6.36-9.84c-.09-.14-.17-.28-.24-.41s-.14-.27-.19-.4h-.05c.02,.14,.04,.36,.05,.65s.02,.66,.02,1.11v8.9h-1.58v-12.6h2.02l6.19,9.68c.13,.21,.24,.38,.33,.52s.15,.26,.19,.34h.04c-.03-.18-.05-.42-.07-.72s-.02-.68-.02-1.11v-8.7h1.59v12.6Z"/>
      <path class="cls-1" d="M181.68,33.13c-.61,.3-1.21,.52-1.79,.65s-1.22,.2-1.91,.2c-1.91,0-3.4-.57-4.46-1.72s-1.6-2.67-1.6-4.56c0-2.04,.59-3.68,1.78-4.9s2.73-1.84,4.64-1.84c.61,0,1.18,.06,1.71,.17s1.06,.29,1.61,.54l-.59,1.32c-.45-.21-.89-.35-1.33-.44s-.9-.14-1.4-.14c-1.44,0-2.58,.47-3.44,1.4s-1.29,2.2-1.29,3.81c0,1.52,.41,2.72,1.22,3.61s1.9,1.34,3.27,1.34c.5,0,.99-.06,1.47-.17s.97-.3,1.46-.55l.64,1.3Z"/>
      <path class="cls-1" d="M182.68,33.77l4.81-12.6h1.71l4.82,12.6h-1.78l-1.23-3.3h-5.38l-1.17,3.3h-1.78Zm3.45-4.71h4.38l-1.98-5.42c-.04-.09-.08-.21-.11-.35s-.06-.31-.1-.5h-.04c-.03,.18-.06,.33-.09,.47s-.07,.26-.11,.37l-1.96,5.43Z"/>
      <path class="cls-1" d="M207.71,33.77h-6.76v-12.6h6.48v1.42h-4.88v4.06h4.52v1.42h-4.52v4.27h5.16v1.42Z"/>
      <path class="cls-1" d="M216.9,33.77h-6.63v-12.6h1.6v11.18h5.03v1.42Z"/>
      <path class="cls-1" d="M225.75,33.77h-6.76v-12.6h6.48v1.42h-4.88v4.06h4.52v1.42h-4.52v4.27h5.16v1.42Z"/>
      <path class="cls-1" d="M237.25,33.13c-.61,.3-1.21,.52-1.79,.65s-1.22,.2-1.91,.2c-1.91,0-3.4-.57-4.46-1.72s-1.59-2.67-1.59-4.56c0-2.04,.59-3.68,1.78-4.9s2.73-1.84,4.64-1.84c.61,0,1.18,.06,1.71,.17s1.06,.29,1.61,.54l-.59,1.32c-.45-.21-.89-.35-1.33-.44s-.9-.14-1.4-.14c-1.44,0-2.58,.47-3.44,1.4s-1.29,2.2-1.29,3.81c0,1.52,.41,2.72,1.22,3.61s1.9,1.34,3.27,1.34c.5,0,.99-.06,1.47-.17s.97-.3,1.46-.55l.64,1.3Z"/>
      <path class="cls-1" d="M247.27,22.59h-3.64v11.18h-1.6v-11.18h-3.63v-1.42h8.87v1.42Z"/>
      <path class="cls-1" d="M258.46,33.77h-1.9l-2.12-3.53c-.39-.65-.72-1.08-1.01-1.27s-.63-.3-1.04-.3h-1.39v5.11h-1.6v-12.6h3.82c1.14,0,2.07,.29,2.81,.87s1.1,1.44,1.1,2.58c0,.88-.23,1.63-.7,2.23s-1.11,1.04-1.92,1.32v.04c.28,.15,.52,.33,.73,.54s.43,.49,.65,.86l2.56,4.17Zm-7.45-11.19v4.67h1.93c.72,0,1.32-.23,1.8-.69s.72-1.06,.72-1.8c0-.66-.21-1.19-.64-1.58s-1.04-.59-1.85-.59h-1.96Z"/>
      <path class="cls-1" d="M265.52,33.98c-1.79,0-3.22-.59-4.3-1.77s-1.62-2.71-1.62-4.6c0-2.02,.55-3.64,1.65-4.85s2.6-1.82,4.48-1.82c1.75,0,3.15,.59,4.22,1.76s1.6,2.71,1.6,4.61c0,2.05-.55,3.67-1.65,4.87s-2.56,1.79-4.39,1.79Zm0-1.43c1.35,0,2.41-.44,3.18-1.32s1.16-2.12,1.16-3.71-.38-2.89-1.13-3.78-1.79-1.34-3.12-1.34-2.33,.47-3.14,1.4-1.2,2.16-1.2,3.69,.39,2.75,1.17,3.67,1.81,1.39,3.07,1.39Zm.16-12.54h-1.2l2-2.88h1.56l-2.35,2.88Z"/>
      <path class="cls-1" d="M284.44,33.77h-1.91l-6.36-9.84c-.09-.14-.17-.28-.24-.41s-.14-.27-.19-.4h-.05c.02,.14,.04,.36,.05,.65s.02,.66,.02,1.11v8.9h-1.58v-12.6h2.02l6.19,9.68c.13,.21,.24,.38,.33,.52s.15,.26,.19,.34h.04c-.03-.18-.05-.42-.07-.72s-.02-.68-.02-1.11v-8.7h1.59v12.6Z"/>
      <path class="cls-1" d="M289.48,33.77h-1.6v-12.6h1.6v12.6Z"/>
      <path class="cls-1" d="M301.86,33.13c-.61,.3-1.21,.52-1.79,.65s-1.22,.2-1.91,.2c-1.91,0-3.4-.57-4.46-1.72s-1.59-2.67-1.59-4.56c0-2.04,.59-3.68,1.78-4.9s2.73-1.84,4.64-1.84c.61,0,1.18,.06,1.71,.17s1.06,.29,1.61,.54l-.59,1.32c-.45-.21-.89-.35-1.33-.44s-.9-.14-1.4-.14c-1.44,0-2.58,.47-3.44,1.4s-1.29,2.2-1.29,3.81c0,1.52,.41,2.72,1.22,3.61s1.9,1.34,3.27,1.34c.5,0,.99-.06,1.47-.17s.97-.3,1.46-.55l.64,1.3Z"/>
      <path class="cls-1" d="M302.87,33.77l4.81-12.6h1.71l4.82,12.6h-1.78l-1.23-3.3h-5.38l-1.17,3.3h-1.78Zm3.45-4.71h4.38l-1.98-5.42c-.04-.09-.08-.21-.11-.35s-.06-.31-.1-.5h-.04c-.03,.18-.06,.33-.09,.47s-.07,.26-.11,.37l-1.96,5.43Z"/>
    </g>
    <g>
      <path class="cls-1" d="M116.07,402.16l7.07-18.91h3.64l7.01,18.91h-3.53l-1.58-4.52h-7.55l-1.54,4.52h-3.51Zm5.88-7.15h5.85l-2.58-7.46c-.06-.19-.12-.39-.17-.59-.05-.2-.09-.44-.14-.73h-.08c-.04,.25-.09,.49-.14,.69-.05,.21-.1,.41-.17,.6l-2.58,7.49Z"/>
      <path class="cls-1" d="M136.62,402.16v-18.91h6.12c1.86,0,3.32,.39,4.36,1.18,1.04,.79,1.56,1.88,1.56,3.28,0,1.04-.29,1.94-.88,2.72-.59,.78-1.38,1.33-2.36,1.64v.05c1.25,.15,2.24,.63,2.99,1.44,.74,.81,1.11,1.83,1.11,3.07,0,1.67-.6,3.01-1.8,4.01-1.2,1.01-2.77,1.51-4.73,1.51h-6.37Zm3.2-16.35v5.38h2.1c1.04,0,1.86-.25,2.47-.76,.61-.5,.91-1.21,.91-2.1s-.28-1.49-.84-1.9-1.41-.62-2.53-.62h-2.1Zm0,7.94v5.85h2.68c1.15,0,2.05-.27,2.68-.81,.64-.54,.96-1.28,.96-2.21s-.33-1.62-.99-2.1c-.66-.49-1.62-.73-2.87-.73h-2.45Z"/>
      <path class="cls-1" d="M167.62,402.16h-3.69l-2.89-5.02c-.51-.88-.98-1.49-1.4-1.83-.42-.34-.92-.52-1.49-.53h-1.67v7.38h-3.2v-18.91h6.17c1.97,0,3.51,.44,4.63,1.32,1.12,.88,1.68,2.19,1.68,3.93,0,1.3-.36,2.4-1.07,3.31-.72,.91-1.7,1.57-2.95,1.99v.05c.47,.2,.91,.51,1.3,.93,.39,.42,.76,.92,1.1,1.5l3.48,5.88Zm-11.14-16.31v6.31h2.44c1.01,0,1.84-.32,2.48-.95,.65-.63,.97-1.44,.97-2.41s-.29-1.66-.86-2.18-1.42-.78-2.53-.78h-2.5Z"/>
      <path class="cls-1" d="M181,402.16h-10.65v-18.91h10.23v2.72h-7.03v5.27h6.53v2.7h-6.53v5.51h7.45v2.7Z"/>
      <path class="cls-1" d="M204.21,385.97h-5.43v16.19h-3.2v-16.19h-5.42v-2.72h14.05v2.72Z"/>
      <path class="cls-1" d="M221.87,394.23c0,2.75-.63,4.81-1.89,6.18s-3.15,2.06-5.67,2.06-4.25-.66-5.46-1.99-1.82-3.33-1.82-6v-11.23h3.2v11.21c0,1.73,.36,3.03,1.07,3.9s1.78,1.31,3.2,1.31,2.43-.42,3.12-1.26c.69-.84,1.03-2.1,1.03-3.79v-11.36h3.2v10.98Z"/>
      <path class="cls-1" d="M247.77,401.18c-.96,.46-1.89,.79-2.79,.99s-1.89,.3-2.95,.3c-2.9,0-5.17-.84-6.81-2.53-1.64-1.69-2.46-4-2.46-6.95s.91-5.4,2.72-7.26c1.81-1.86,4.19-2.79,7.11-2.79,.96,0,1.84,.08,2.64,.24s1.61,.41,2.44,.76l-1.05,2.62c-.66-.28-1.3-.49-1.93-.61-.63-.13-1.31-.19-2.04-.19-1.89,0-3.45,.63-4.67,1.89-1.22,1.26-1.83,2.97-1.83,5.14s.56,3.8,1.68,5.03c1.12,1.23,2.63,1.84,4.54,1.84,.63,0,1.3-.08,2-.25s1.42-.44,2.16-.82l1.24,2.6Z"/>
      <path class="cls-1" d="M265.73,394.23c0,2.75-.63,4.81-1.89,6.18s-3.15,2.06-5.67,2.06-4.25-.66-5.46-1.99-1.82-3.33-1.82-6v-11.23h3.2v11.21c0,1.73,.36,3.03,1.07,3.9s1.78,1.31,3.2,1.31,2.43-.42,3.12-1.26c.69-.84,1.03-2.1,1.03-3.79v-11.36h3.2v10.98Z"/>
      <path class="cls-1" d="M281.06,402.16h-10.65v-18.91h10.23v2.72h-7.03v5.27h6.53v2.7h-6.53v5.51h7.45v2.7Z"/>
      <path class="cls-1" d="M300.77,402.16h-3.48l-8.78-13.51c-.18-.27-.33-.52-.46-.75s-.24-.43-.32-.62h-.07c.04,.26,.06,.63,.08,1.09s.03,1.04,.03,1.71v12.08h-3.1v-18.91h3.72l8.5,13.21c.18,.28,.35,.54,.49,.78,.14,.24,.26,.45,.35,.63h.05c-.04-.25-.06-.6-.08-1.05-.02-.44-.03-.99-.03-1.64v-11.93h3.08v18.91Z"/>
      <path class="cls-1" d="M317.87,385.97h-5.43v16.19h-3.2v-16.19h-5.42v-2.72h14.05v2.72Z"/>
      <path class="cls-1" d="M316.96,402.16l7.07-18.91h3.64l7.01,18.91h-3.53l-1.58-4.52h-7.55l-1.54,4.52h-3.51Zm5.88-7.15h5.85l-2.58-7.46c-.06-.19-.12-.39-.16-.59-.05-.2-.1-.44-.14-.73h-.08c-.04,.25-.09,.49-.14,.69-.05,.21-.1,.41-.17,.6l-2.58,7.49Z"/>
    </g>
    <g>
      <path class="cls-1" d="M141.46,427.33l-6.18,12.05v6.86h-3.22v-6.79l-6.02-12.12h3.64l3.67,7.82c.03,.06,.08,.2,.16,.43,.08,.22,.18,.53,.29,.92h.05c.04-.24,.11-.46,.18-.68,.08-.21,.17-.43,.26-.64l3.78-7.84h3.39Z"/>
      <path class="cls-1" d="M151.57,446.23v-18.91h5.95c3.35,0,5.86,.77,7.53,2.3,1.67,1.53,2.5,3.84,2.5,6.92s-.92,5.27-2.77,7.04-4.3,2.65-7.37,2.65h-5.84Zm3.2-16.19v13.49h2.48c2.17,0,3.87-.61,5.09-1.83s1.83-2.92,1.83-5.1-.58-3.74-1.75-4.87-2.87-1.69-5.12-1.69h-2.53Z"/>
      <path class="cls-1" d="M168.47,446.23l7.07-18.91h3.64l7.01,18.91h-3.53l-1.58-4.52h-7.55l-1.54,4.52h-3.51Zm5.88-7.15h5.85l-2.58-7.46c-.06-.19-.12-.39-.17-.59-.05-.2-.09-.44-.14-.73h-.08c-.04,.25-.09,.49-.14,.69-.05,.21-.1,.41-.17,.6l-2.58,7.49Z"/>
      <path class="cls-1" d="M199.27,430.04h-5.43v16.19h-3.2v-16.19h-5.42v-2.72h14.05v2.72Z"/>
      <path class="cls-1" d="M212.97,446.23h-10.65v-18.91h10.23v2.72h-7.03v5.27h6.53v2.7h-6.53v5.51h7.45v2.7Z"/>
      <path class="cls-1" d="M237.8,445.26c-.96,.46-1.89,.79-2.79,.99s-1.89,.3-2.95,.3c-2.9,0-5.17-.84-6.81-2.53-1.64-1.69-2.46-4-2.46-6.95s.91-5.4,2.72-7.26c1.81-1.86,4.19-2.79,7.11-2.79,.96,0,1.84,.08,2.64,.24s1.61,.41,2.44,.76l-1.05,2.62c-.66-.28-1.3-.49-1.93-.61-.63-.13-1.31-.19-2.04-.19-1.89,0-3.45,.63-4.67,1.89-1.22,1.26-1.83,2.97-1.83,5.14s.56,3.8,1.68,5.03c1.12,1.23,2.63,1.84,4.54,1.84,.63,0,1.3-.08,2-.25s1.42-.44,2.16-.82l1.24,2.6Z"/>
      <path class="cls-1" d="M255.76,438.31c0,2.75-.63,4.81-1.88,6.18s-3.15,2.06-5.67,2.06-4.25-.66-5.46-1.99-1.82-3.33-1.82-6v-11.23h3.2v11.21c0,1.73,.36,3.03,1.07,3.9s1.78,1.31,3.2,1.31,2.43-.42,3.12-1.26c.69-.84,1.04-2.1,1.04-3.79v-11.36h3.2v10.98Z"/>
      <path class="cls-1" d="M271.09,446.23h-10.65v-18.91h10.23v2.72h-7.03v5.27h6.53v2.7h-6.53v5.51h7.45v2.7Z"/>
      <path class="cls-1" d="M290.8,446.23h-3.48l-8.78-13.51c-.18-.27-.33-.52-.46-.75s-.24-.43-.32-.62h-.07c.04,.26,.06,.63,.08,1.09s.03,1.04,.03,1.71v12.08h-3.1v-18.91h3.72l8.5,13.21c.18,.28,.35,.54,.5,.78,.14,.24,.26,.45,.35,.63h.05c-.04-.25-.06-.6-.08-1.05-.02-.44-.03-.99-.03-1.64v-11.93h3.08v18.91Z"/>
      <path class="cls-1" d="M307.9,430.04h-5.43v16.19h-3.2v-16.19h-5.42v-2.72h14.05v2.72Z"/>
      <path class="cls-1" d="M306.99,446.23l7.07-18.91h3.64l7.01,18.91h-3.53l-1.58-4.52h-7.55l-1.54,4.52h-3.51Zm5.88-7.15h5.85l-2.58-7.46c-.06-.19-.12-.39-.17-.59-.05-.2-.09-.44-.14-.73h-.08c-.04,.25-.09,.49-.14,.69-.05,.21-.1,.41-.17,.6l-2.58,7.49Z"/>
    </g>
    <g>
      <path class="cls-1" d="M197.99,606.6h-3.48l-8.78-13.51c-.18-.27-.33-.52-.46-.75s-.24-.44-.32-.62h-.07c.04,.26,.06,.63,.08,1.09s.03,1.04,.03,1.71v12.08h-3.1v-18.91h3.72l8.5,13.21c.18,.28,.35,.54,.49,.78,.14,.24,.26,.45,.35,.63h.05c-.04-.26-.06-.6-.08-1.05-.02-.44-.03-.99-.03-1.64v-11.93h3.08v18.91Z"/>
      <path class="cls-1" d="M217.51,598.67c0,2.75-.63,4.81-1.89,6.18s-3.15,2.06-5.67,2.06-4.25-.66-5.46-1.99c-1.21-1.33-1.82-3.33-1.82-6v-11.23h3.2v11.21c0,1.73,.36,3.03,1.07,3.9s1.78,1.31,3.2,1.31,2.43-.42,3.12-1.26c.69-.84,1.03-2.1,1.03-3.79v-11.36h3.2v10.98Z"/>
      <path class="cls-1" d="M232.84,606.6h-10.65v-18.91h10.23v2.72h-7.03v5.27h6.53v2.7h-6.53v5.51h7.45v2.7Z"/>
      <path class="cls-1" d="M251.34,587.69l-6.78,18.91h-3.6l-6.64-18.91h3.49l4.61,14.09c.09,.3,.16,.6,.22,.9s.11,.59,.16,.88h.05c.04-.28,.09-.57,.17-.88,.07-.3,.16-.62,.27-.94l4.64-14.05h3.4Z"/>
      <path class="cls-1" d="M250.39,606.6l7.07-18.91h3.64l7.01,18.91h-3.53l-1.58-4.52h-7.55l-1.54,4.52h-3.51Zm5.88-7.15h5.85l-2.58-7.46c-.06-.19-.12-.39-.17-.59-.05-.2-.09-.44-.14-.73h-.08c-.04,.25-.09,.49-.14,.69-.05,.21-.1,.41-.17,.6l-2.58,7.49Z"/>
    </g>
    <g>
      <path class="cls-1" d="M125.92,618.88h-5.43v16.19h-3.2v-16.19h-5.42v-2.72h14.05v2.72Z"/>
      <path class="cls-1" d="M125.02,635.07l7.07-18.91h3.64l7.01,18.91h-3.53l-1.58-4.52h-7.55l-1.54,4.52h-3.51Zm5.88-7.15h5.85l-2.58-7.46c-.06-.19-.12-.39-.17-.59-.05-.2-.09-.44-.14-.73h-.08c-.04,.25-.09,.49-.14,.69-.05,.21-.1,.41-.17,.6l-2.58,7.49Z"/>
      <path class="cls-1" d="M159.93,635.07h-3.69l-2.89-5.02c-.51-.88-.98-1.49-1.4-1.83-.42-.34-.92-.52-1.49-.53h-1.67v7.38h-3.2v-18.91h6.17c1.97,0,3.51,.44,4.63,1.32,1.12,.88,1.68,2.19,1.68,3.93,0,1.3-.36,2.4-1.07,3.31-.72,.91-1.7,1.57-2.95,1.99v.05c.47,.2,.91,.51,1.3,.93,.39,.42,.76,.92,1.1,1.5l3.48,5.88Zm-11.14-16.31v6.31h2.44c1.01,0,1.84-.32,2.48-.95,.65-.63,.97-1.44,.97-2.41s-.29-1.66-.86-2.18c-.57-.52-1.42-.78-2.53-.78h-2.5Z"/>
      <path class="cls-1" d="M169.79,629.28c0,1.97-.48,3.48-1.43,4.53-.95,1.05-2.37,1.58-4.25,1.58-.49,0-.98-.04-1.46-.13s-.98-.23-1.49-.43l.94-2.54c.33,.12,.63,.22,.91,.28s.58,.1,.9,.1c.88,0,1.54-.26,1.98-.78,.44-.52,.67-1.38,.67-2.58l.04-13.13h3.19v13.12Z"/>
      <path class="cls-1" d="M185.16,635.07h-10.65v-18.91h10.23v2.72h-7.03v5.27h6.53v2.7h-6.53v5.51h7.45v2.7Z"/>
      <path class="cls-1" d="M200.95,618.88h-5.43v16.19h-3.2v-16.19h-5.42v-2.72h14.05v2.72Z"/>
      <path class="cls-1" d="M200.04,635.07l7.07-18.91h3.64l7.01,18.91h-3.53l-1.58-4.52h-7.55l-1.54,4.52h-3.51Zm5.88-7.15h5.85l-2.58-7.46c-.06-.19-.12-.39-.17-.59-.05-.2-.09-.44-.14-.73h-.08c-.04,.25-.09,.49-.14,.69-.05,.21-.1,.41-.17,.6l-2.58,7.49Z"/>
      <path class="cls-1" d="M228.02,635.07v-18.91h5.95c3.35,0,5.86,.77,7.53,2.3,1.67,1.53,2.5,3.84,2.5,6.92s-.92,5.27-2.77,7.04-4.3,2.65-7.37,2.65h-5.84Zm3.2-16.19v13.49h2.48c2.17,0,3.87-.61,5.09-1.83,1.22-1.22,1.83-2.92,1.83-5.1s-.58-3.74-1.75-4.86c-1.17-1.12-2.87-1.69-5.12-1.69h-2.53Z"/>
      <path class="cls-1" d="M250.92,635.07h-3.22v-18.91h3.22v18.91Z"/>
      <path class="cls-2" d="M270.65,633.71c-.92,.54-1.94,.95-3.04,1.24-1.1,.29-2.29,.44-3.57,.44-2.88,0-5.17-.81-6.88-2.43-1.7-1.62-2.55-3.97-2.55-7.06s.91-5.4,2.72-7.26c1.81-1.86,4.23-2.79,7.26-2.79,1.12,0,2.16,.11,3.11,.32s1.92,.54,2.9,1l-1.13,2.53c-.81-.39-1.59-.67-2.35-.84-.76-.17-1.6-.26-2.53-.26-1.97,0-3.56,.61-4.78,1.83-1.22,1.22-1.83,2.98-1.83,5.27s.56,4.05,1.69,5.2,2.66,1.72,4.6,1.72c.62,0,1.2-.05,1.73-.16,.53-.11,1-.27,1.42-.48v-4.52h-3.97v-2.69h7.19v8.94Z"/>
      <path class="cls-2" d="M288.97,635.07l-2.07-2.11c-.8,.74-1.69,1.32-2.66,1.76-.97,.44-2.09,.65-3.36,.65-1.84,0-3.34-.48-4.52-1.44-1.18-.96-1.77-2.35-1.77-4.18,0-1.31,.34-2.4,1.03-3.28,.69-.87,1.63-1.62,2.83-2.25-.63-.75-1.09-1.44-1.37-2.07s-.42-1.3-.42-1.99c0-1.39,.47-2.46,1.4-3.2,.94-.75,2.12-1.12,3.54-1.12s2.5,.37,3.38,1.12,1.31,1.73,1.31,2.94c0,.98-.26,1.83-.77,2.53-.51,.7-1.57,1.43-3.17,2.21l4.67,4.72c.59-.79,1-1.61,1.23-2.45s.34-1.81,.34-2.91h2.65c0,1.34-.2,2.58-.59,3.7-.39,1.12-1.03,2.23-1.92,3.34l4,4.02h-3.76Zm-3.72-3.82l-5.26-5.4c-.69,.38-1.26,.86-1.73,1.44s-.7,1.37-.7,2.37,.32,1.8,.97,2.37c.65,.57,1.46,.86,2.45,.86,.88,0,1.66-.14,2.35-.43s1.33-.69,1.92-1.21Zm-4.36-8.11c1.03-.43,1.75-.87,2.16-1.3,.41-.44,.61-1.01,.61-1.7s-.22-1.21-.65-1.54-.9-.5-1.4-.5c-.68,0-1.22,.2-1.64,.6-.42,.4-.63,.92-.63,1.56,0,.5,.13,.97,.38,1.4,.25,.43,.64,.93,1.16,1.48Z"/>
      <path class="cls-1" d="M307.96,618.88h-5.43v16.19h-3.2v-16.19h-5.42v-2.72h14.05v2.72Z"/>
      <path class="cls-1" d="M307.05,635.07l7.07-18.91h3.64l7.01,18.91h-3.53l-1.58-4.52h-7.55l-1.54,4.52h-3.51Zm5.88-7.15h5.85l-2.58-7.46c-.06-.19-.12-.39-.17-.59-.05-.2-.09-.44-.14-.73h-.08c-.04,.25-.09,.49-.14,.69-.05,.21-.1,.41-.17,.6l-2.58,7.49Z"/>
      <path class="cls-1" d="M338.13,635.07h-10.52v-18.91h3.2v16.2h7.32v2.7Z"/>
    </g>
    <g>
      <path class="cls-1" d="M194.34,245.62h-1.6v-12.6h1.6v12.6Z"/>
      <path class="cls-1" d="M205.33,245.62h-1.56v-5.26c0-.96-.18-1.68-.53-2.16s-.88-.72-1.57-.72-1.32,.27-1.79,.81-.71,1.23-.71,2.06v5.26h-1.56v-9.22h1.56v1.53h.04c.35-.58,.77-1.02,1.27-1.31s1.09-.44,1.75-.44c1.01,0,1.78,.33,2.31,.98s.8,1.59,.8,2.82v5.64Z"/>
      <path class="cls-1" d="M216.14,244.95c0,1.62-.42,2.85-1.25,3.67s-2,1.24-3.48,1.24c-.64,0-1.23-.06-1.78-.19s-1.1-.32-1.65-.58l.56-1.19c.48,.23,.95,.39,1.4,.5s.94,.15,1.46,.15c1,0,1.78-.28,2.34-.85s.84-1.42,.84-2.54v-1.07h-.04c-.35,.59-.78,1.03-1.31,1.32s-1.14,.44-1.84,.44c-1.15,0-2.07-.41-2.77-1.24s-1.05-1.93-1.05-3.31c0-1.52,.39-2.75,1.16-3.7s1.79-1.42,3.06-1.42c.62,0,1.16,.12,1.62,.37s.83,.62,1.13,1.12h.04v-1.27h1.56v8.55Zm-1.56-3.51v-1.33c0-.73-.24-1.35-.73-1.86s-1.09-.77-1.81-.77c-.89,0-1.59,.31-2.1,.93s-.76,1.55-.76,2.79c0,1.07,.24,1.89,.71,2.47s1.12,.87,1.95,.87,1.48-.29,1.98-.87,.76-1.32,.76-2.22Z"/>
      <path class="cls-1" d="M223.83,237.74c-.12-.04-.23-.06-.33-.08s-.22-.03-.36-.03c-.74,0-1.33,.31-1.76,.94s-.64,1.43-.64,2.39v4.66h-1.56v-9.22h1.56v1.83h.04c.21-.65,.53-1.14,.96-1.48s.93-.5,1.5-.5c.18,0,.34,0,.47,.03s.25,.04,.36,.08l-.25,1.39Z"/>
      <path class="cls-1" d="M233.28,241.37h-6.49c.03,1.02,.3,1.8,.82,2.35s1.24,.82,2.17,.82c.4,0,.82-.06,1.24-.19s.85-.33,1.28-.62l.71,1.09c-.53,.35-1.07,.61-1.61,.77s-1.13,.25-1.78,.25c-1.39,0-2.48-.42-3.26-1.24s-1.17-1.99-1.18-3.48c0-1.48,.39-2.68,1.18-3.58,.79-.91,1.82-1.36,3.09-1.36s2.14,.39,2.81,1.17,1,1.87,1,3.27v.75Zm-1.57-1.23c0-.85-.21-1.51-.61-1.98s-.95-.7-1.66-.7-1.28,.24-1.75,.72-.77,1.14-.88,1.96h4.9Z"/>
      <path class="cls-1" d="M234.77,244.94l.73-1.18c.39,.26,.77,.45,1.15,.59s.8,.2,1.26,.2c.62,0,1.08-.11,1.41-.34s.48-.56,.48-1.01c0-.38-.14-.69-.43-.94s-.73-.45-1.34-.61c-1.14-.29-1.93-.66-2.36-1.1s-.64-1.01-.64-1.67c0-.77,.29-1.42,.88-1.92s1.39-.76,2.41-.76c.49,0,.96,.06,1.4,.19s.89,.34,1.34,.63l-.68,1.16c-.41-.26-.78-.44-1.11-.54s-.66-.15-1-.15c-.58,0-1.03,.11-1.34,.33s-.47,.53-.47,.94,.15,.7,.46,.91,.81,.4,1.52,.58c.94,.25,1.65,.6,2.11,1.05s.7,1.04,.7,1.79c0,.85-.31,1.52-.92,2.03s-1.45,.75-2.5,.75c-.57,0-1.12-.08-1.64-.23s-1-.38-1.45-.67Z"/>
      <path class="cls-1" d="M250.21,245.62h-1.56v-1.45h-.04c-.32,.55-.71,.97-1.18,1.25s-1.01,.42-1.63,.42c-.87,0-1.57-.25-2.1-.76s-.8-1.17-.8-2,.27-1.46,.81-1.98,1.32-.85,2.33-.99l2.62-.35v-.21c0-.74-.18-1.28-.53-1.61s-.83-.49-1.43-.49c-.47,0-.94,.09-1.39,.27s-.88,.45-1.28,.82l-.85-.95c.52-.48,1.08-.84,1.67-1.07s1.25-.35,1.96-.35c1.12,0,1.97,.29,2.54,.87s.86,1.45,.86,2.61v5.96Zm-1.55-3.76v-.89l-2.2,.3c-.67,.09-1.18,.26-1.51,.51s-.5,.63-.5,1.16,.16,.93,.47,1.21,.7,.43,1.17,.43c.77,0,1.39-.26,1.86-.77s.7-1.16,.7-1.96Z"/>
      <path class="cls-1" d="M257.76,237.74c-.12-.04-.23-.06-.33-.08s-.22-.03-.36-.03c-.74,0-1.33,.31-1.76,.94s-.64,1.43-.64,2.39v4.66h-1.56v-9.22h1.56v1.83h.04c.21-.65,.53-1.14,.96-1.48s.93-.5,1.5-.5c.18,0,.34,0,.47,.03s.25,.04,.36,.08l-.25,1.39Z"/>
    </g>
    <rect class="cls-1" x="138.01" y="173.52" width="174.72" height="29.44" rx="8" ry="8"/>
    <rect class="cls-3" x="143.89" y="220.33" width="162.96" height="37.74" rx="14" ry="14"/>
    <rect class="cls-7" x="121.93" y="465.87" width="206.88" height="51.96" rx="8" ry="8"/>
    <g>
      <path class="cls-1" d="M192.44,495.44l.77-1.22c.52,.35,1.04,.61,1.56,.76s1.1,.24,1.77,.24c.76,0,1.37-.18,1.85-.53s.72-.86,.72-1.53c0-.6-.2-1.08-.61-1.43s-1.07-.7-2-1.03c-1.21-.42-2.1-.89-2.67-1.44-.57-.54-.86-1.26-.86-2.16,0-1.03,.37-1.87,1.12-2.52s1.74-.98,2.98-.98c.57,0,1.14,.07,1.69,.2,.55,.13,1.11,.34,1.67,.62l-.65,1.27c-.46-.23-.92-.41-1.37-.52s-.93-.17-1.44-.17c-.74,0-1.32,.17-1.75,.51-.43,.34-.64,.82-.64,1.43,0,.53,.2,.96,.59,1.27s1.05,.64,1.98,.97c1.28,.44,2.19,.94,2.75,1.51s.83,1.34,.83,2.3c0,1.04-.37,1.9-1.12,2.59-.75,.69-1.8,1.03-3.16,1.03-.75,0-1.45-.1-2.1-.29s-1.28-.5-1.89-.91Z"/>
      <path class="cls-1" d="M207.03,496.64c-1.38,0-2.47-.43-3.29-1.3-.82-.86-1.23-2.01-1.23-3.44,0-1.54,.42-2.75,1.27-3.61s2-1.3,3.45-1.31c1.38,0,2.47,.42,3.25,1.27,.78,.85,1.17,2.02,1.17,3.51s-.42,2.67-1.26,3.55-1.96,1.33-3.37,1.33Zm.11-1.3c.94,0,1.66-.31,2.16-.92,.5-.61,.75-1.48,.75-2.61s-.25-2.01-.76-2.62-1.22-.91-2.15-.91-1.67,.32-2.21,.95c-.54,.63-.81,1.51-.81,2.62s.27,1.94,.82,2.55c.54,.62,1.28,.93,2.21,.93Z"/>
      <path class="cls-1" d="M214.08,496.42v-13.32h1.56v13.32h-1.56Z"/>
      <path class="cls-1" d="M219.48,485.25c-.31,0-.57-.1-.77-.31s-.31-.45-.31-.75,.1-.56,.31-.76c.21-.2,.46-.3,.77-.3s.57,.1,.78,.3c.21,.2,.31,.46,.31,.76s-.1,.54-.31,.75-.47,.31-.78,.31Zm.76,11.17h-1.56v-9.22h1.56v9.22Z"/>
      <path class="cls-1" d="M229.99,495.84c-.44,.28-.88,.49-1.32,.61-.44,.13-.91,.19-1.42,.19-1.32,0-2.39-.41-3.23-1.22-.83-.81-1.25-1.95-1.25-3.41s.42-2.73,1.27-3.65c.85-.92,2.01-1.38,3.48-1.38,.47,0,.93,.06,1.35,.17,.43,.12,.86,.3,1.29,.55l-.66,1.14c-.33-.2-.66-.34-.98-.43-.32-.08-.67-.13-1.04-.13-1,0-1.77,.33-2.31,1-.54,.66-.8,1.52-.8,2.56,0,1.12,.28,1.99,.84,2.58s1.28,.9,2.17,.9c.3,0,.61-.05,.93-.14,.32-.09,.65-.25,.99-.46l.69,1.11Z"/>
      <path class="cls-1" d="M232.93,485.25c-.31,0-.57-.1-.77-.31s-.31-.45-.31-.75,.1-.56,.31-.76c.21-.2,.46-.3,.77-.3s.57,.1,.78,.3c.21,.2,.31,.46,.31,.76s-.1,.54-.31,.75-.47,.31-.78,.31Zm.76,11.17h-1.56v-9.22h1.56v9.22Z"/>
      <path class="cls-1" d="M241.36,496.31c-.25,.11-.5,.18-.75,.23-.25,.05-.53,.08-.84,.08-.76,0-1.35-.22-1.77-.65s-.64-1.08-.64-1.92v-5.54h-1.57v-1.3h1.57v-2.11l1.57-.5v2.61h2.3v1.3h-2.3v5.36c0,.52,.09,.9,.28,1.13,.19,.23,.47,.35,.84,.35,.18,0,.35-.02,.51-.06s.3-.09,.42-.15l.37,1.18Z"/>
      <path class="cls-1" d="M249.95,496.42h-1.56v-1.45h-.04c-.32,.55-.71,.97-1.18,1.25s-1.01,.42-1.63,.42c-.87,0-1.57-.25-2.1-.76s-.8-1.17-.8-2,.27-1.46,.81-1.98,1.32-.85,2.33-.99l2.62-.35v-.21c0-.74-.18-1.28-.53-1.61s-.83-.49-1.43-.49c-.47,0-.94,.09-1.39,.27s-.88,.45-1.28,.82l-.85-.95c.52-.48,1.08-.84,1.67-1.07,.59-.23,1.25-.35,1.96-.35,1.12,0,1.97,.29,2.54,.87s.86,1.45,.86,2.61v5.96Zm-1.55-3.76v-.89l-2.2,.3c-.67,.09-1.18,.26-1.51,.51s-.5,.63-.5,1.16,.16,.93,.47,1.21,.71,.43,1.17,.43c.77,0,1.39-.26,1.86-.77,.47-.51,.7-1.17,.7-1.96Z"/>
      <path class="cls-1" d="M257.5,488.54c-.12-.04-.23-.06-.33-.08s-.22-.03-.36-.03c-.74,0-1.33,.31-1.76,.95-.43,.63-.64,1.42-.64,2.39v4.66h-1.56v-9.22h1.56v1.83h.04c.21-.65,.53-1.14,.96-1.48,.43-.34,.93-.51,1.5-.51,.18,0,.34,0,.47,.03s.25,.04,.37,.08l-.25,1.39Z"/>
    </g>
    <rect class="cls-7" x="121.67" y="655.3" width="206.88" height="51.96" rx="8" ry="8"/>
    <g>
      <path class="cls-1" d="M192.7,684.87l.77-1.22c.52,.35,1.04,.61,1.56,.76s1.1,.24,1.77,.24c.76,0,1.37-.18,1.85-.53s.72-.86,.72-1.53c0-.6-.2-1.08-.61-1.43s-1.07-.7-2-1.03c-1.21-.42-2.1-.9-2.67-1.44s-.86-1.26-.86-2.16c0-1.03,.37-1.87,1.12-2.52s1.74-.98,2.98-.98c.57,0,1.14,.07,1.69,.2s1.11,.34,1.67,.62l-.65,1.27c-.46-.23-.92-.41-1.37-.52s-.93-.17-1.44-.17c-.74,0-1.32,.17-1.75,.51s-.64,.82-.64,1.43c0,.53,.2,.96,.59,1.27s1.05,.64,1.98,.97c1.28,.44,2.19,.94,2.75,1.51s.83,1.34,.83,2.3c0,1.04-.37,1.9-1.12,2.59s-1.8,1.03-3.16,1.03c-.75,0-1.45-.1-2.1-.29s-1.28-.5-1.89-.91Z"/>
      <path class="cls-1" d="M207.29,686.07c-1.38,0-2.47-.43-3.29-1.3s-1.23-2.01-1.23-3.44c0-1.54,.42-2.75,1.27-3.61s2-1.3,3.45-1.31c1.38,0,2.47,.42,3.25,1.27s1.17,2.02,1.17,3.51-.42,2.67-1.26,3.55-1.96,1.33-3.37,1.33Zm.11-1.3c.94,0,1.66-.31,2.16-.92s.75-1.48,.75-2.61-.25-2.01-.76-2.62-1.22-.91-2.15-.91-1.67,.32-2.21,.95-.81,1.51-.81,2.62,.27,1.93,.82,2.55,1.28,.93,2.21,.93Z"/>
      <path class="cls-1" d="M214.34,685.85v-13.32h1.56v13.32h-1.56Z"/>
      <path class="cls-1" d="M219.75,674.68c-.31,0-.57-.1-.77-.31s-.31-.45-.31-.75,.1-.56,.31-.76,.46-.3,.77-.3,.57,.1,.78,.3,.31,.46,.31,.76-.1,.54-.31,.75-.47,.31-.78,.31Zm.76,11.17h-1.56v-9.22h1.56v9.22Z"/>
      <path class="cls-1" d="M230.26,685.27c-.44,.28-.88,.48-1.32,.61s-.91,.19-1.42,.19c-1.32,0-2.39-.41-3.23-1.22s-1.25-1.95-1.25-3.41,.42-2.73,1.27-3.65,2-1.38,3.48-1.38c.47,0,.93,.06,1.35,.17s.86,.3,1.29,.55l-.66,1.14c-.33-.2-.66-.34-.98-.43s-.67-.13-1.04-.13c-1,0-1.77,.33-2.31,1s-.8,1.52-.8,2.56c0,1.12,.28,1.99,.84,2.58s1.28,.9,2.17,.9c.3,0,.61-.05,.93-.14s.65-.24,.99-.46l.69,1.11Z"/>
      <path class="cls-1" d="M233.19,674.68c-.31,0-.57-.1-.77-.31s-.31-.45-.31-.75,.1-.56,.31-.76,.46-.3,.77-.3,.57,.1,.78,.3,.31,.46,.31,.76-.1,.54-.31,.75-.47,.31-.78,.31Zm.76,11.17h-1.56v-9.22h1.56v9.22Z"/>
      <path class="cls-1" d="M241.62,685.74c-.25,.11-.5,.18-.75,.23s-.53,.08-.84,.08c-.76,0-1.35-.22-1.77-.65s-.64-1.08-.64-1.92v-5.54h-1.57v-1.3h1.57v-2.11l1.57-.5v2.61h2.3v1.3h-2.3v5.36c0,.52,.09,.9,.28,1.13s.47,.35,.84,.35c.18,0,.35-.02,.51-.06s.3-.09,.42-.15l.37,1.18Z"/>
      <path class="cls-1" d="M250.22,685.85h-1.56v-1.45h-.04c-.32,.55-.71,.97-1.18,1.25s-1.01,.42-1.63,.42c-.87,0-1.57-.25-2.1-.76s-.8-1.17-.8-2,.27-1.46,.81-1.98,1.32-.85,2.33-.99l2.62-.35v-.21c0-.74-.18-1.28-.53-1.61s-.83-.49-1.43-.49c-.47,0-.94,.09-1.39,.27s-.88,.45-1.28,.82l-.85-.95c.52-.48,1.08-.84,1.67-1.07s1.25-.35,1.96-.35c1.12,0,1.97,.29,2.54,.87s.86,1.45,.86,2.61v5.96Zm-1.55-3.76v-.89l-2.2,.3c-.67,.09-1.18,.26-1.51,.51s-.5,.63-.5,1.16,.16,.93,.47,1.21,.7,.43,1.17,.43c.77,0,1.39-.26,1.86-.77s.7-1.16,.7-1.96Z"/>
      <path class="cls-1" d="M257.77,677.97c-.12-.04-.23-.06-.33-.08s-.22-.03-.36-.03c-.74,0-1.33,.31-1.76,.94s-.64,1.43-.64,2.39v4.66h-1.56v-9.22h1.56v1.83h.04c.21-.65,.53-1.14,.96-1.48s.93-.5,1.5-.5c.18,0,.34,0,.47,.03s.25,.04,.36,.08l-.25,1.39Z"/>
    </g>
    <g>
      <path class="cls-5" d="M406.79,613.12c-5.2,0-9.44,4.24-9.44,9.44,0,2.12,.62,3.71,1.67,5.38l-.96,3.48,3.58-.93c1.59,.94,3.12,1.51,5.14,1.51,5.21,0,9.44-4.23,9.44-9.43,.01-5.22-4.21-9.44-9.43-9.45Zm5.55,13.5c-.23,.66-1.37,1.27-1.91,1.35-.49,.07-1.11,.1-1.79-.11-.41-.13-.94-.31-1.62-.6-2.84-1.23-4.7-4.1-4.84-4.28-.14-.19-1.16-1.54-1.16-2.94s.73-2.08,.99-2.37c.26-.28,.57-.35,.76-.35h.54c.18,0,.41-.06,.64,.49,.24,.57,.8,1.97,.88,2.11,.07,.14,.11,.31,.02,.5-.1,.19-.14,.3-.28,.47l-.43,.5c-.14,.14-.29,.29-.12,.57,.16,.29,.73,1.22,1.57,1.97,1.09,.97,2,1.26,2.28,1.41,.29,.14,.45,.12,.62-.07s.71-.83,.9-1.12c.19-.28,.38-.23,.64-.14,.26,.1,1.65,.78,1.94,.92,.28,.15,.47,.22,.54,.34,.07,.12,.07,.69-.17,1.35Zm4.43-21.14h-20.05c-3.96,0-7.16,3.2-7.16,7.16v20.05c0,3.95,3.2,7.16,7.16,7.16h20.05c3.95,0,7.16-3.21,7.16-7.16v-20.05c0-3.96-3.21-7.16-7.16-7.16Zm-9.98,28.44c-1.9,0-3.77-.47-5.43-1.38l-6.02,1.58,1.61-5.88c-.99-1.72-1.52-3.68-1.52-5.68,.01-6.26,5.1-11.35,11.36-11.35,3.04,0,5.89,1.18,8.03,3.33,2.14,2.14,3.32,5,3.32,8.03,0,6.26-5.09,11.35-11.35,11.35Zm0-20.8c-5.2,0-9.44,4.24-9.44,9.44,0,2.12,.62,3.71,1.67,5.38l-.96,3.48,3.58-.93c1.59,.94,3.12,1.51,5.14,1.51,5.21,0,9.44-4.23,9.44-9.43,.01-5.22-4.21-9.44-9.43-9.45Zm5.55,13.5c-.23,.66-1.37,1.27-1.91,1.35-.49,.07-1.11,.1-1.79-.11-.41-.13-.94-.31-1.62-.6-2.84-1.23-4.7-4.1-4.84-4.28-.14-.19-1.16-1.54-1.16-2.94s.73-2.08,.99-2.37c.26-.28,.57-.35,.76-.35h.54c.18,0,.41-.06,.64,.49,.24,.57,.8,1.97,.88,2.11,.07,.14,.11,.31,.02,.5-.1,.19-.14,.3-.28,.47l-.43,.5c-.14,.14-.29,.29-.12,.57,.16,.29,.73,1.22,1.57,1.97,1.09,.97,2,1.26,2.28,1.41,.29,.14,.45,.12,.62-.07s.71-.83,.9-1.12c.19-.28,.38-.23,.64-.14,.26,.1,1.65,.78,1.94,.92,.28,.15,.47,.22,.54,.34,.07,.12,.07,.69-.17,1.35Zm-5.55-13.5c-5.2,0-9.44,4.24-9.44,9.44,0,2.12,.62,3.71,1.67,5.38l-.96,3.48,3.58-.93c1.59,.94,3.12,1.51,5.14,1.51,5.21,0,9.44-4.23,9.44-9.43,.01-5.22-4.21-9.44-9.43-9.45Z"/>
      <path class="cls-1" d="M412.34,626.62c-.23,.66-1.37,1.27-1.91,1.35-.49,.07-1.11,.1-1.79-.11-.41-.13-.94-.31-1.62-.6-2.84-1.23-4.7-4.1-4.84-4.28-.14-.19-1.16-1.54-1.16-2.94s.73-2.08,.99-2.37c.26-.28,.57-.35,.76-.35h.54c.18,0,.41-.06,.64,.49,.24,.57,.8,1.97,.88,2.11,.07,.14,.11,.31,.02,.5-.1,.19-.14,.3-.28,.47l-.43,.5c-.14,.14-.29,.29-.12,.57,.16,.29,.73,1.22,1.57,1.97,1.09,.97,2,1.26,2.28,1.41,.29,.14,.45,.12,.62-.07s.71-.83,.9-1.12c.19-.28,.38-.23,.64-.14,.26,.1,1.65,.78,1.94,.92,.28,.15,.47,.22,.54,.34,.07,.12,.07,.69-.17,1.35Z"/>
      <path class="cls-1" d="M414.82,614.54c-2.14-2.15-4.99-3.33-8.03-3.33-6.26,0-11.35,5.09-11.36,11.35,0,2,.53,3.96,1.52,5.68l-1.61,5.88,6.02-1.58c1.66,.91,3.53,1.38,5.43,1.38,6.26,0,11.35-5.09,11.35-11.35,0-3.03-1.18-5.89-3.32-8.03Zm-8.04,17.46c-2.02,0-3.55-.57-5.14-1.51l-3.58,.93,.96-3.48c-1.05-1.67-1.67-3.26-1.67-5.38,0-5.2,4.24-9.44,9.44-9.44,5.22,.01,9.44,4.23,9.43,9.45,0,5.2-4.23,9.43-9.44,9.43Z"/>
    </g>
    <g>
      <path class="cls-7" d="M115.29,69.2h-4.19v3.89h4.67v1.17h-6.07v-10.79h5.83v1.17h-4.43v3.41h4.19v1.15Z"/>
      <path class="cls-7" d="M117.53,62.89h1.41v11.36h-1.41v-11.36Z"/>
      <path class="cls-7" d="M130.22,73.97c-.37,.19-1.18,.45-2.22,.45-2.34,0-3.86-1.58-3.86-3.95s1.63-4.11,4.16-4.11c.83,0,1.57,.21,1.95,.4l-.32,1.09c-.34-.19-.86-.37-1.63-.37-1.78,0-2.74,1.31-2.74,2.93,0,1.79,1.15,2.9,2.69,2.9,.8,0,1.33-.21,1.73-.38l.24,1.06Z"/>
      <path class="cls-7" d="M138.78,70.32c0,2.87-1.99,4.11-3.86,4.11-2.1,0-3.71-1.54-3.71-3.99,0-2.59,1.7-4.11,3.84-4.11s3.73,1.62,3.73,3.99Zm-6.15,.08c0,1.7,.98,2.98,2.35,2.98s2.35-1.26,2.35-3.01c0-1.31-.66-2.98-2.32-2.98s-2.38,1.54-2.38,3.01Zm4.47-7.24l-1.95,2.29h-1.01l1.41-2.29h1.55Z"/>
      <path class="cls-7" d="M147.25,62.89v9.36c0,.69,.02,1.47,.06,2h-1.26l-.06-1.34h-.03c-.43,.86-1.38,1.52-2.64,1.52-1.87,0-3.31-1.58-3.31-3.94-.02-2.58,1.58-4.16,3.47-4.16,1.18,0,1.98,.56,2.34,1.18h.03v-4.63h1.41Zm-1.41,6.77c0-.18-.02-.42-.06-.59-.21-.9-.98-1.63-2.03-1.63-1.46,0-2.32,1.28-2.32,2.99,0,1.57,.77,2.87,2.29,2.87,.95,0,1.81-.62,2.07-1.68,.05-.19,.06-.38,.06-.61v-1.34Z"/>
      <path class="cls-7" d="M151.15,64.34c.02,.48-.34,.86-.9,.86-.5,0-.85-.38-.85-.86s.37-.88,.88-.88,.86,.38,.86,.88Zm-1.57,9.92v-7.75h1.41v7.75h-1.41Z"/>
      <path class="cls-7" d="M160,66.51c-.03,.56-.06,1.18-.06,2.13v4.5c0,1.78-.35,2.87-1.1,3.54-.75,.7-1.84,.93-2.82,.93s-1.95-.22-2.58-.64l.35-1.07c.51,.32,1.31,.61,2.27,.61,1.44,0,2.5-.75,2.5-2.71v-.86h-.03c-.43,.72-1.26,1.3-2.46,1.3-1.92,0-3.3-1.63-3.3-3.78,0-2.62,1.71-4.11,3.49-4.11,1.34,0,2.08,.7,2.42,1.34h.03l.06-1.17h1.23Zm-1.46,3.06c0-.24-.02-.45-.08-.64-.26-.82-.94-1.49-1.97-1.49-1.34,0-2.3,1.14-2.3,2.93,0,1.52,.77,2.79,2.29,2.79,.87,0,1.65-.54,1.95-1.44,.08-.24,.11-.51,.11-.75v-1.39Z"/>
      <path class="cls-7" d="M169.28,70.32c0,2.87-1.99,4.11-3.86,4.11-2.1,0-3.71-1.54-3.71-3.99,0-2.59,1.7-4.11,3.84-4.11s3.73,1.62,3.73,3.99Zm-6.15,.08c0,1.7,.98,2.98,2.35,2.98s2.35-1.26,2.35-3.01c0-1.31-.66-2.98-2.32-2.98s-2.38,1.54-2.38,3.01Z"/>
      <path class="cls-7" d="M176.01,64.34c.02,.48-.34,.86-.9,.86-.5,0-.85-.38-.85-.86s.37-.88,.88-.88,.86,.38,.86,.88Zm-1.57,9.92v-7.75h1.41v7.75h-1.41Z"/>
      <path class="cls-7" d="M178.19,68.61c0-.8-.02-1.46-.06-2.1h1.25l.08,1.28h.03c.38-.74,1.28-1.46,2.56-1.46,1.07,0,2.74,.64,2.74,3.3v4.63h-1.41v-4.47c0-1.25-.46-2.29-1.79-2.29-.93,0-1.65,.66-1.89,1.44-.06,.18-.1,.42-.1,.66v4.66h-1.41v-5.65Z"/>
      <path class="cls-7" d="M188.7,64.29v2.22h2.02v1.07h-2.02v4.18c0,.96,.27,1.5,1.06,1.5,.37,0,.64-.05,.82-.1l.06,1.06c-.27,.11-.7,.19-1.25,.19-.66,0-1.18-.21-1.52-.59-.4-.42-.54-1.1-.54-2.02v-4.23h-1.2v-1.07h1.2v-1.86l1.38-.37Z"/>
      <path class="cls-7" d="M192.3,68.93c0-.91-.02-1.7-.06-2.42h1.23l.05,1.52h.06c.35-1.04,1.2-1.7,2.14-1.7,.16,0,.27,.02,.4,.05v1.33c-.14-.03-.29-.05-.48-.05-.99,0-1.7,.75-1.89,1.81-.03,.19-.06,.42-.06,.66v4.13h-1.39v-5.33Z"/>
      <path class="cls-7" d="M204.38,70.32c0,2.87-1.99,4.11-3.86,4.11-2.1,0-3.71-1.54-3.71-3.99,0-2.59,1.7-4.11,3.84-4.11s3.73,1.62,3.73,3.99Zm-6.15,.08c0,1.7,.98,2.98,2.35,2.98s2.35-1.26,2.35-3.01c0-1.31-.66-2.98-2.32-2.98s-2.38,1.54-2.38,3.01Z"/>
      <path class="cls-7" d="M212.84,62.89v9.36c0,.69,.02,1.47,.06,2h-1.26l-.06-1.34h-.03c-.43,.86-1.38,1.52-2.64,1.52-1.87,0-3.31-1.58-3.31-3.94-.02-2.58,1.58-4.16,3.47-4.16,1.18,0,1.98,.56,2.34,1.18h.03v-4.63h1.41Zm-1.41,6.77c0-.18-.02-.42-.06-.59-.21-.9-.98-1.63-2.03-1.63-1.46,0-2.32,1.28-2.32,2.99,0,1.57,.77,2.87,2.29,2.87,.95,0,1.81-.62,2.07-1.68,.05-.19,.06-.38,.06-.61v-1.34Z"/>
      <path class="cls-7" d="M221.66,72.15c0,.8,.02,1.5,.06,2.11h-1.25l-.08-1.26h-.03c-.37,.62-1.18,1.44-2.56,1.44-1.22,0-2.67-.67-2.67-3.39v-4.53h1.41v4.29c0,1.47,.45,2.46,1.73,2.46,.94,0,1.6-.66,1.86-1.28,.08-.21,.13-.46,.13-.72v-4.75h1.41v5.63Z"/>
      <path class="cls-7" d="M229.51,73.97c-.37,.19-1.18,.45-2.22,.45-2.34,0-3.86-1.58-3.86-3.95s1.63-4.11,4.16-4.11c.83,0,1.57,.21,1.95,.4l-.32,1.09c-.34-.19-.86-.37-1.63-.37-1.78,0-2.74,1.31-2.74,2.93,0,1.79,1.15,2.9,2.69,2.9,.8,0,1.33-.21,1.73-.38l.24,1.06Z"/>
      <path class="cls-7" d="M232.73,64.34c.02,.48-.34,.86-.9,.86-.5,0-.85-.38-.85-.86s.37-.88,.88-.88,.86,.38,.86,.88Zm-1.57,9.92v-7.75h1.41v7.75h-1.41Z"/>
      <path class="cls-7" d="M241.6,62.89v9.36c0,.69,.02,1.47,.06,2h-1.26l-.06-1.34h-.03c-.43,.86-1.38,1.52-2.64,1.52-1.87,0-3.31-1.58-3.31-3.94-.02-2.58,1.58-4.16,3.47-4.16,1.18,0,1.98,.56,2.34,1.18h.03v-4.63h1.41Zm-1.41,6.77c0-.18-.02-.42-.06-.59-.21-.9-.98-1.63-2.03-1.63-1.46,0-2.32,1.28-2.32,2.99,0,1.57,.77,2.87,2.29,2.87,.95,0,1.81-.62,2.07-1.68,.05-.19,.06-.38,.06-.61v-1.34Z"/>
      <path class="cls-7" d="M250.94,70.32c0,2.87-1.99,4.11-3.86,4.11-2.1,0-3.71-1.54-3.71-3.99,0-2.59,1.7-4.11,3.84-4.11s3.73,1.62,3.73,3.99Zm-6.15,.08c0,1.7,.98,2.98,2.35,2.98s2.35-1.26,2.35-3.01c0-1.31-.66-2.98-2.32-2.98s-2.38,1.54-2.38,3.01Z"/>
      <path class="cls-7" d="M256.89,70.64c.03,1.9,1.25,2.69,2.66,2.69,1.01,0,1.62-.18,2.14-.4l.24,1.01c-.5,.22-1.34,.48-2.58,.48-2.38,0-3.81-1.57-3.81-3.91s1.38-4.18,3.63-4.18c2.53,0,3.2,2.22,3.2,3.65,0,.29-.03,.51-.05,.66h-5.44Zm4.13-1.01c.02-.9-.37-2.29-1.95-2.29-1.42,0-2.05,1.31-2.16,2.29h4.11Z"/>
      <path class="cls-7" d="M263.93,72.82c.42,.27,1.15,.56,1.86,.56,1.02,0,1.5-.51,1.5-1.15s-.4-1.04-1.44-1.42c-1.39-.5-2.05-1.26-2.05-2.19,0-1.25,1.01-2.27,2.67-2.27,.78,0,1.47,.22,1.9,.48l-.35,1.02c-.3-.19-.86-.45-1.58-.45-.83,0-1.3,.48-1.3,1.06,0,.64,.46,.93,1.47,1.31,1.34,.51,2.03,1.18,2.03,2.34,0,1.36-1.06,2.32-2.9,2.32-.85,0-1.63-.21-2.18-.53l.35-1.07Z"/>
      <path class="cls-7" d="M275.42,64.34c.02,.48-.34,.86-.9,.86-.5,0-.85-.38-.85-.86s.37-.88,.88-.88,.86,.38,.86,.88Zm-1.57,9.92v-7.75h1.41v7.75h-1.41Z"/>
      <path class="cls-7" d="M277.59,68.61c0-.8-.02-1.46-.06-2.1h1.25l.08,1.28h.03c.38-.74,1.28-1.46,2.56-1.46,1.07,0,2.74,.64,2.74,3.3v4.63h-1.41v-4.47c0-1.25-.46-2.29-1.79-2.29-.93,0-1.65,.66-1.89,1.44-.06,.18-.1,.42-.1,.66v4.66h-1.41v-5.65Z"/>
      <path class="cls-7" d="M291.99,73.97c-.37,.19-1.18,.45-2.22,.45-2.34,0-3.86-1.58-3.86-3.95s1.63-4.11,4.16-4.11c.83,0,1.57,.21,1.95,.4l-.32,1.09c-.34-.19-.86-.37-1.63-.37-1.78,0-2.74,1.31-2.74,2.93,0,1.79,1.15,2.9,2.69,2.9,.8,0,1.33-.21,1.73-.38l.24,1.06Z"/>
      <path class="cls-7" d="M300.56,70.32c0,2.87-1.99,4.11-3.86,4.11-2.1,0-3.71-1.54-3.71-3.99,0-2.59,1.7-4.11,3.84-4.11s3.73,1.62,3.73,3.99Zm-6.15,.08c0,1.7,.98,2.98,2.35,2.98s2.35-1.26,2.35-3.01c0-1.31-.66-2.98-2.32-2.98s-2.38,1.54-2.38,3.01Z"/>
      <path class="cls-7" d="M302.33,68.93c0-.91-.02-1.7-.06-2.42h1.23l.05,1.52h.06c.35-1.04,1.2-1.7,2.14-1.7,.16,0,.27,.02,.4,.05v1.33c-.14-.03-.29-.05-.48-.05-.99,0-1.7,.75-1.89,1.81-.03,.19-.06,.42-.06,.66v4.13h-1.39v-5.33Z"/>
      <path class="cls-7" d="M307.62,68.93c0-.91-.02-1.7-.06-2.42h1.23l.05,1.52h.06c.35-1.04,1.2-1.7,2.14-1.7,.16,0,.27,.02,.4,.05v1.33c-.14-.03-.29-.05-.48-.05-.99,0-1.7,.75-1.89,1.81-.03,.19-.06,.42-.06,.66v4.13h-1.39v-5.33Z"/>
      <path class="cls-7" d="M313.48,70.64c.03,1.9,1.25,2.69,2.66,2.69,1.01,0,1.62-.18,2.15-.4l.24,1.01c-.5,.22-1.34,.48-2.58,.48-2.38,0-3.81-1.57-3.81-3.91s1.38-4.18,3.63-4.18c2.53,0,3.2,2.22,3.2,3.65,0,.29-.03,.51-.05,.66h-5.44Zm4.13-1.01c.02-.9-.37-2.29-1.95-2.29-1.42,0-2.05,1.31-2.16,2.29h4.11Z"/>
      <path class="cls-7" d="M326.23,73.97c-.37,.19-1.18,.45-2.22,.45-2.34,0-3.86-1.58-3.86-3.95s1.63-4.11,4.16-4.11c.83,0,1.57,.21,1.95,.4l-.32,1.09c-.34-.19-.86-.37-1.63-.37-1.78,0-2.74,1.31-2.74,2.93,0,1.79,1.15,2.9,2.69,2.9,.8,0,1.33-.21,1.73-.38l.24,1.06Z"/>
      <path class="cls-7" d="M329.78,64.29v2.22h2.02v1.07h-2.02v4.18c0,.96,.27,1.5,1.06,1.5,.37,0,.64-.05,.82-.1l.06,1.06c-.27,.11-.7,.19-1.25,.19-.66,0-1.18-.21-1.52-.59-.4-.42-.54-1.1-.54-2.02v-4.23h-1.2v-1.07h1.2v-1.86l1.38-.37Z"/>
      <path class="cls-7" d="M340.3,70.32c0,2.87-1.99,4.11-3.86,4.11-2.1,0-3.71-1.54-3.71-3.99,0-2.59,1.7-4.11,3.84-4.11s3.73,1.62,3.73,3.99Zm-6.15,.08c0,1.7,.98,2.98,2.35,2.98s2.35-1.26,2.35-3.01c0-1.31-.66-2.98-2.32-2.98s-2.38,1.54-2.38,3.01Z"/>
    </g>
    <g>
      <path class="cls-1" d="M128.37,108.14h-6.76v-12.6h6.48v1.42h-4.88v4.06h4.52v1.42h-4.52v4.27h5.16v1.42Z"/>
      <path class="cls-1" d="M129.92,107.46l.73-1.18c.39,.26,.77,.45,1.15,.59s.8,.2,1.26,.2c.62,0,1.08-.11,1.41-.34s.48-.56,.48-1.01c0-.38-.14-.69-.43-.94s-.73-.45-1.34-.61c-1.14-.29-1.93-.66-2.36-1.1s-.64-1.01-.64-1.67c0-.77,.29-1.42,.88-1.92s1.39-.76,2.41-.76c.49,0,.96,.06,1.4,.19s.89,.34,1.34,.63l-.68,1.16c-.41-.26-.78-.44-1.11-.54s-.66-.15-1-.15c-.58,0-1.03,.11-1.34,.33s-.47,.53-.47,.94,.15,.7,.46,.91,.81,.4,1.52,.58c.94,.25,1.65,.6,2.11,1.05s.7,1.04,.7,1.79c0,.85-.31,1.52-.92,2.03s-1.45,.75-2.5,.75c-.57,0-1.12-.08-1.64-.23s-1-.38-1.45-.67Z"/>
      <path class="cls-1" d="M140.32,106.82h-.04v5.47h-1.56v-13.36h1.56v1.61h.04c.36-.61,.81-1.07,1.34-1.37s1.15-.46,1.84-.46c1.19,0,2.12,.41,2.78,1.24s1,1.93,1,3.32c0,1.54-.38,2.78-1.13,3.7s-1.78,1.39-3.07,1.39c-.6,0-1.13-.13-1.59-.39s-.85-.64-1.17-1.16Zm-.04-3.71v1.23c0,.76,.24,1.41,.73,1.93s1.11,.79,1.86,.79c.87,0,1.56-.34,2.06-1.01s.75-1.61,.75-2.81c0-1.01-.23-1.81-.69-2.38s-1.09-.86-1.89-.86c-.85,0-1.53,.29-2.04,.88s-.77,1.33-.77,2.22Z"/>
      <path class="cls-1" d="M157.18,103.89h-6.49c.03,1.02,.3,1.8,.82,2.35s1.24,.82,2.17,.82c.4,0,.82-.06,1.24-.19s.85-.33,1.28-.62l.71,1.09c-.53,.35-1.07,.61-1.61,.77s-1.13,.25-1.78,.25c-1.39,0-2.48-.42-3.26-1.24s-1.17-1.99-1.18-3.48c0-1.48,.39-2.68,1.18-3.58s1.82-1.36,3.09-1.36,2.14,.39,2.81,1.17,1,1.87,1,3.27v.75Zm-1.57-1.23c0-.85-.21-1.51-.61-1.98s-.95-.7-1.66-.7-1.28,.24-1.75,.72-.77,1.14-.88,1.96h4.9Z"/>
      <path class="cls-1" d="M164.14,100.26c-.12-.04-.23-.06-.33-.08s-.22-.03-.36-.03c-.74,0-1.33,.31-1.76,.94s-.64,1.43-.64,2.39v4.66h-1.56v-9.22h1.56v1.83h.04c.21-.65,.53-1.14,.96-1.48s.93-.5,1.5-.5c.18,0,.34,0,.47,.03s.25,.04,.36,.08l-.25,1.39Z"/>
      <path class="cls-1" d="M173.59,103.89h-6.49c.03,1.02,.3,1.8,.82,2.35s1.24,.82,2.17,.82c.4,0,.82-.06,1.24-.19s.85-.33,1.28-.62l.71,1.09c-.53,.35-1.07,.61-1.61,.77s-1.13,.25-1.78,.25c-1.39,0-2.48-.42-3.26-1.24s-1.17-1.99-1.18-3.48c0-1.48,.39-2.68,1.18-3.58s1.82-1.36,3.09-1.36,2.14,.39,2.81,1.17,1,1.87,1,3.27v.75Zm-1.57-1.23c0-.85-.21-1.51-.61-1.98s-.95-.7-1.66-.7-1.28,.24-1.75,.72-.77,1.14-.88,1.96h4.9Z"/>
      <path class="cls-1" d="M188.31,103.89h-6.49c.03,1.02,.3,1.8,.82,2.35s1.24,.82,2.17,.82c.4,0,.82-.06,1.24-.19s.85-.33,1.28-.62l.71,1.09c-.53,.35-1.07,.61-1.61,.77s-1.13,.25-1.78,.25c-1.39,0-2.48-.42-3.26-1.24s-1.17-1.99-1.18-3.48c0-1.48,.39-2.68,1.18-3.58s1.82-1.36,3.09-1.36,2.14,.39,2.81,1.17,1,1.87,1,3.27v.75Zm-1.57-1.23c0-.85-.21-1.51-.61-1.98s-.95-.7-1.66-.7-1.28,.24-1.75,.72-.77,1.14-.88,1.96h4.9Z"/>
      <path class="cls-1" d="M196.36,96.97c-.31,0-.57-.1-.77-.31s-.31-.45-.31-.75,.1-.56,.31-.76,.46-.3,.77-.3,.57,.1,.78,.3,.31,.46,.31,.76-.1,.54-.31,.75-.47,.31-.78,.31Zm.76,11.17h-1.56v-9.22h1.56v9.22Z"/>
      <path class="cls-1" d="M208,108.14h-1.56v-5.26c0-.96-.18-1.68-.53-2.16s-.88-.72-1.57-.72-1.32,.27-1.79,.81-.71,1.23-.71,2.06v5.26h-1.56v-9.22h1.56v1.53h.04c.35-.58,.77-1.02,1.27-1.31s1.09-.44,1.75-.44c1.01,0,1.78,.33,2.31,.98s.8,1.59,.8,2.82v5.64Z"/>
      <path class="cls-1" d="M218.81,107.48c0,1.62-.42,2.85-1.25,3.67s-2,1.24-3.49,1.24c-.64,0-1.23-.06-1.78-.19s-1.1-.32-1.65-.58l.56-1.19c.48,.23,.95,.39,1.4,.5s.94,.15,1.46,.15c1,0,1.78-.28,2.34-.85s.84-1.42,.84-2.54v-1.07h-.04c-.35,.59-.78,1.03-1.31,1.32s-1.14,.44-1.84,.44c-1.15,0-2.07-.41-2.77-1.24s-1.05-1.93-1.05-3.31c0-1.52,.39-2.75,1.16-3.7s1.79-1.42,3.06-1.42c.62,0,1.16,.12,1.62,.37s.83,.62,1.13,1.12h.04v-1.27h1.56v8.55Zm-1.56-3.51v-1.33c0-.73-.24-1.35-.72-1.86s-1.09-.77-1.82-.77c-.89,0-1.59,.31-2.1,.93s-.76,1.55-.76,2.79c0,1.07,.24,1.89,.71,2.47s1.12,.87,1.95,.87,1.48-.29,1.98-.87,.76-1.32,.76-2.22Z"/>
      <path class="cls-1" d="M226.5,100.26c-.12-.04-.23-.06-.33-.08s-.22-.03-.36-.03c-.74,0-1.33,.31-1.76,.94s-.64,1.43-.64,2.39v4.66h-1.56v-9.22h1.56v1.83h.04c.21-.65,.53-1.14,.96-1.48s.93-.5,1.5-.5c.18,0,.34,0,.47,.03s.25,.04,.36,.08l-.25,1.39Z"/>
      <path class="cls-1" d="M235.95,103.89h-6.49c.03,1.02,.3,1.8,.82,2.35s1.24,.82,2.17,.82c.4,0,.82-.06,1.24-.19s.85-.33,1.28-.62l.71,1.09c-.53,.35-1.07,.61-1.61,.77s-1.13,.25-1.78,.25c-1.39,0-2.48-.42-3.26-1.24s-1.17-1.99-1.18-3.48c0-1.48,.39-2.68,1.18-3.58s1.82-1.36,3.09-1.36,2.14,.39,2.81,1.17,1,1.87,1,3.27v.75Zm-1.57-1.23c0-.85-.21-1.51-.61-1.98s-.95-.7-1.66-.7-1.28,.24-1.75,.72-.77,1.14-.88,1.96h4.9Z"/>
      <path class="cls-1" d="M237.44,107.46l.73-1.18c.39,.26,.77,.45,1.15,.59s.8,.2,1.26,.2c.62,0,1.08-.11,1.41-.34s.48-.56,.48-1.01c0-.38-.14-.69-.43-.94s-.73-.45-1.34-.61c-1.14-.29-1.93-.66-2.36-1.1s-.64-1.01-.64-1.67c0-.77,.29-1.42,.88-1.92s1.39-.76,2.41-.76c.49,0,.96,.06,1.4,.19s.89,.34,1.34,.63l-.68,1.16c-.41-.26-.78-.44-1.11-.54s-.66-.15-1-.15c-.58,0-1.03,.11-1.34,.33s-.47,.53-.47,.94,.15,.7,.46,.91,.81,.4,1.52,.58c.94,.25,1.65,.6,2.11,1.05s.7,1.04,.7,1.79c0,.85-.31,1.52-.92,2.03s-1.45,.75-2.5,.75c-.57,0-1.12-.08-1.64-.23s-1-.38-1.45-.67Z"/>
      <path class="cls-1" d="M253.72,103.89h-6.49c.03,1.02,.3,1.8,.82,2.35s1.24,.82,2.17,.82c.4,0,.82-.06,1.24-.19s.85-.33,1.28-.62l.71,1.09c-.53,.35-1.07,.61-1.61,.77s-1.13,.25-1.78,.25c-1.39,0-2.48-.42-3.26-1.24s-1.17-1.99-1.18-3.48c0-1.48,.39-2.68,1.18-3.58s1.82-1.36,3.09-1.36,2.14,.39,2.81,1.17,1,1.87,1,3.27v.75Zm-1.57-1.23c0-.85-.21-1.51-.61-1.98s-.95-.7-1.66-.7-1.28,.24-1.75,.72-.77,1.14-.88,1.96h4.9Z"/>
      <path class="cls-1" d="M268.44,103.89h-6.49c.03,1.02,.3,1.8,.82,2.35s1.24,.82,2.17,.82c.4,0,.82-.06,1.24-.19s.85-.33,1.28-.62l.71,1.09c-.53,.35-1.07,.61-1.61,.77s-1.13,.25-1.78,.25c-1.39,0-2.48-.42-3.26-1.24s-1.17-1.99-1.18-3.48c0-1.48,.39-2.68,1.18-3.58s1.82-1.36,3.09-1.36,2.14,.39,2.81,1.17,1,1.87,1,3.27v.75Zm-1.57-1.23c0-.85-.21-1.51-.61-1.98s-.95-.7-1.66-.7-1.28,.24-1.75,.72-.77,1.14-.88,1.96h4.9Z"/>
      <path class="cls-1" d="M270.76,108.14v-13.32h1.56v13.32h-1.56Z"/>
      <path class="cls-1" d="M286.89,107.56c-.44,.28-.88,.48-1.32,.61s-.91,.19-1.42,.19c-1.32,0-2.39-.41-3.23-1.22s-1.25-1.95-1.25-3.41,.42-2.73,1.27-3.65,2-1.38,3.48-1.38c.47,0,.93,.06,1.35,.17s.86,.3,1.29,.55l-.66,1.14c-.33-.2-.66-.34-.98-.43s-.67-.13-1.04-.13c-1,0-1.77,.33-2.31,1s-.8,1.52-.8,2.56c0,1.12,.28,1.99,.84,2.58s1.28,.9,2.17,.9c.3,0,.61-.05,.93-.14s.65-.24,.99-.46l.69,1.11Z"/>
      <path class="cls-1" d="M292.94,108.36c-1.38,0-2.47-.43-3.29-1.3s-1.23-2.01-1.23-3.44c0-1.54,.42-2.75,1.27-3.61s2-1.3,3.45-1.31c1.38,0,2.47,.42,3.25,1.27s1.17,2.02,1.17,3.51-.42,2.67-1.26,3.55-1.96,1.33-3.37,1.33Zm.11-1.3c.94,0,1.66-.31,2.16-.92s.75-1.48,.75-2.61-.25-2.01-.76-2.62-1.22-.91-2.15-.91-1.67,.32-2.21,.95-.81,1.51-.81,2.62,.27,1.93,.82,2.55,1.28,.93,2.21,.93Zm-.04-9.78h-1.2l2-2.88h1.56l-2.35,2.88Z"/>
      <path class="cls-1" d="M306.35,106.6c-.34,.59-.77,1.03-1.3,1.32s-1.14,.44-1.85,.44c-1.16,0-2.09-.41-2.78-1.24s-1.04-1.95-1.04-3.38c0-1.53,.38-2.75,1.15-3.67s1.79-1.38,3.07-1.38c.63,0,1.18,.12,1.63,.37s.83,.62,1.12,1.12h.04v-5.37h1.56v13.32h-1.56v-1.55h-.04Zm-5.37-2.93c0,1.05,.24,1.88,.73,2.49s1.14,.91,1.95,.91,1.48-.29,1.98-.88,.75-1.33,.75-2.22v-1.32c0-.74-.24-1.36-.72-1.87s-1.09-.76-1.83-.76c-.88,0-1.58,.33-2.09,.98s-.76,1.55-.76,2.69Z"/>
      <path class="cls-1" d="M311.79,96.97c-.31,0-.57-.1-.77-.31s-.31-.45-.31-.75,.1-.56,.31-.76,.46-.3,.77-.3,.57,.1,.78,.3,.31,.46,.31,.76-.1,.54-.31,.75-.47,.31-.78,.31Zm.76,11.17h-1.56v-9.22h1.56v9.22Z"/>
      <path class="cls-1" d="M323.67,107.48c0,1.62-.42,2.85-1.25,3.67s-2,1.24-3.49,1.24c-.64,0-1.23-.06-1.78-.19s-1.1-.32-1.65-.58l.56-1.19c.48,.23,.95,.39,1.4,.5s.94,.15,1.46,.15c1,0,1.78-.28,2.34-.85s.84-1.42,.84-2.54v-1.07h-.04c-.35,.59-.78,1.03-1.31,1.32s-1.14,.44-1.84,.44c-1.15,0-2.07-.41-2.77-1.24s-1.05-1.93-1.05-3.31c0-1.52,.39-2.75,1.16-3.7s1.79-1.42,3.06-1.42c.62,0,1.16,.12,1.62,.37s.83,.62,1.13,1.12h.04v-1.27h1.57v8.55Zm-1.57-3.51v-1.33c0-.73-.24-1.35-.72-1.86s-1.09-.77-1.82-.77c-.89,0-1.59,.31-2.1,.93s-.76,1.55-.76,2.79c0,1.07,.24,1.89,.71,2.47s1.12,.87,1.95,.87,1.48-.29,1.98-.87,.76-1.32,.76-2.22Z"/>
      <path class="cls-1" d="M330.62,108.36c-1.38,0-2.47-.43-3.29-1.3-.82-.86-1.23-2.01-1.23-3.44,0-1.54,.42-2.75,1.27-3.61s2-1.3,3.45-1.31c1.38,0,2.47,.42,3.25,1.27,.78,.85,1.17,2.02,1.17,3.51s-.42,2.67-1.26,3.55-1.96,1.33-3.37,1.33Zm.11-1.3c.94,0,1.66-.31,2.16-.92,.5-.61,.75-1.48,.75-2.61s-.25-2.01-.76-2.62-1.22-.91-2.15-.91-1.67,.32-2.21,.95-.81,1.51-.81,2.62,.27,1.93,.82,2.55,1.28,.93,2.21,.93Z"/>
      <path class="cls-1" d="M122.86,129.74h-1.56v-5.26c0-.96-.18-1.68-.53-2.16s-.88-.72-1.57-.72-1.32,.27-1.79,.81-.71,1.23-.71,2.06v5.26h-1.56v-9.22h1.56v1.53h.04c.35-.58,.77-1.02,1.27-1.31s1.09-.44,1.75-.44c1.01,0,1.78,.33,2.31,.98s.8,1.59,.8,2.82v5.64Z"/>
      <path class="cls-1" d="M133.26,129.74h-1.56v-1.47h-.04c-.31,.56-.71,.98-1.18,1.27s-1.04,.42-1.67,.42c-1.1,0-1.92-.33-2.47-.98s-.82-1.64-.82-2.95v-5.51h1.56v5.27c0,.96,.18,1.67,.54,2.15s.91,.72,1.64,.72,1.29-.26,1.74-.78,.68-1.21,.68-2.06v-5.3h1.56v9.22Z"/>
      <path class="cls-1" d="M149.49,129.74h-1.57v-5.3c0-1-.16-1.73-.47-2.17s-.83-.67-1.56-.67c-.62,0-1.15,.28-1.58,.84s-.65,1.24-.65,2.04v5.26h-1.56v-5.47c0-.89-.17-1.56-.51-2s-.86-.67-1.54-.67c-.64,0-1.17,.27-1.58,.8s-.62,1.23-.62,2.09v5.25h-1.56v-9.22h1.56v1.46h.04c.33-.56,.73-.98,1.21-1.26s1.03-.42,1.66-.42,1.18,.17,1.65,.52,.79,.81,.97,1.38c.34-.63,.77-1.11,1.28-1.42s1.11-.47,1.78-.47c1.01,0,1.78,.31,2.29,.94s.76,1.56,.76,2.82v5.69Z"/>
      <path class="cls-1" d="M159.82,125.49h-6.49c.03,1.02,.3,1.8,.82,2.35s1.24,.82,2.17,.82c.4,0,.82-.06,1.24-.19s.85-.33,1.28-.62l.71,1.09c-.53,.35-1.07,.61-1.61,.77s-1.13,.25-1.78,.25c-1.39,0-2.48-.41-3.26-1.24s-1.17-1.99-1.18-3.48c0-1.48,.39-2.68,1.18-3.58s1.82-1.36,3.09-1.36,2.14,.39,2.81,1.17,1,1.87,1,3.26v.75Zm-1.57-1.23c0-.85-.21-1.51-.61-1.98s-.95-.7-1.66-.7-1.28,.24-1.75,.73-.77,1.13-.87,1.96h4.9Zm-2.28-5.38h-1.2l2-2.88h1.56l-2.35,2.88Z"/>
      <path class="cls-1" d="M166.78,121.86c-.12-.04-.23-.06-.33-.08s-.22-.03-.36-.03c-.74,0-1.33,.32-1.76,.95s-.64,1.42-.64,2.39v4.66h-1.56v-9.22h1.56v1.83h.04c.21-.65,.53-1.14,.96-1.48s.93-.51,1.5-.51c.18,0,.34,0,.47,.03s.25,.04,.37,.08l-.25,1.39Z"/>
      <path class="cls-1" d="M169.55,118.57c-.31,0-.57-.1-.77-.31s-.31-.45-.31-.75,.1-.56,.31-.76,.46-.3,.77-.3,.57,.1,.78,.3,.31,.46,.31,.76-.1,.54-.31,.75-.47,.31-.78,.31Zm.76,11.17h-1.56v-9.22h1.56v9.22Z"/>
      <path class="cls-1" d="M180.06,129.16c-.44,.28-.88,.49-1.32,.61s-.91,.19-1.42,.19c-1.32,0-2.39-.41-3.23-1.22s-1.25-1.95-1.25-3.41,.42-2.73,1.27-3.65,2.01-1.38,3.48-1.38c.47,0,.93,.06,1.35,.17s.86,.3,1.29,.55l-.66,1.14c-.33-.2-.66-.34-.98-.43s-.67-.13-1.04-.13c-1,0-1.77,.33-2.31,1s-.8,1.52-.8,2.56c0,1.12,.28,1.99,.84,2.58s1.28,.9,2.17,.9c.3,0,.61-.04,.93-.14s.65-.25,.99-.46l.69,1.11Z"/>
      <path class="cls-1" d="M186.1,129.96c-1.38,0-2.47-.43-3.29-1.3s-1.23-2.01-1.23-3.44c0-1.54,.42-2.75,1.27-3.61s2-1.3,3.45-1.31c1.38,0,2.46,.42,3.25,1.27s1.17,2.02,1.17,3.51-.42,2.67-1.26,3.55-1.96,1.33-3.37,1.33Zm.11-1.3c.94,0,1.66-.31,2.16-.92s.75-1.48,.75-2.61-.25-2.01-.76-2.62-1.22-.91-2.15-.91-1.67,.32-2.21,.95-.81,1.51-.81,2.62,.27,1.94,.82,2.55,1.28,.93,2.21,.93Z"/>
      <path class="cls-1" d="M206.32,133.88h-1.57v-5.7h-.04c-.32,.6-.74,1.04-1.26,1.34s-1.15,.44-1.87,.44c-1.16,0-2.09-.41-2.79-1.24s-1.05-1.95-1.05-3.38c0-1.54,.38-2.76,1.16-3.67s1.8-1.37,3.09-1.37c.63,0,1.17,.12,1.62,.37s.82,.62,1.1,1.11h.04v-1.27h1.57v13.36Zm-1.56-8.31v-1.3c0-.75-.24-1.38-.73-1.9s-1.1-.77-1.85-.77c-.87,0-1.56,.32-2.07,.97s-.76,1.56-.76,2.74c0,1.04,.24,1.86,.73,2.46s1.12,.89,1.89,.89c.85,0,1.53-.29,2.03-.87s.76-1.32,.76-2.21Z"/>
      <path class="cls-1" d="M216.64,129.74h-1.56v-1.47h-.04c-.31,.56-.71,.98-1.18,1.27s-1.04,.42-1.67,.42c-1.1,0-1.92-.33-2.47-.98s-.82-1.64-.82-2.95v-5.51h1.56v5.27c0,.96,.18,1.67,.54,2.15s.91,.72,1.64,.72,1.29-.26,1.74-.78,.68-1.21,.68-2.06v-5.3h1.56v9.22Z"/>
      <path class="cls-1" d="M227.15,125.49h-6.49c.03,1.02,.3,1.8,.82,2.35s1.24,.82,2.17,.82c.4,0,.82-.06,1.24-.19s.85-.33,1.28-.62l.71,1.09c-.53,.35-1.07,.61-1.61,.77s-1.13,.25-1.78,.25c-1.39,0-2.48-.41-3.26-1.24s-1.17-1.99-1.18-3.48c0-1.48,.39-2.68,1.18-3.58s1.82-1.36,3.09-1.36,2.14,.39,2.81,1.17,1,1.87,1,3.26v.75Zm-1.57-1.23c0-.85-.21-1.51-.61-1.98s-.95-.7-1.66-.7-1.28,.24-1.75,.73-.77,1.13-.87,1.96h4.9Z"/>
      <path class="cls-1" d="M241.87,125.49h-6.49c.03,1.02,.3,1.8,.82,2.35s1.24,.82,2.17,.82c.4,0,.82-.06,1.24-.19s.85-.33,1.28-.62l.71,1.09c-.53,.35-1.07,.61-1.61,.77s-1.13,.25-1.78,.25c-1.39,0-2.48-.41-3.26-1.24s-1.17-1.99-1.18-3.48c0-1.48,.39-2.68,1.18-3.58s1.82-1.36,3.09-1.36,2.14,.39,2.81,1.17,1,1.87,1,3.26v.75Zm-1.57-1.23c0-.85-.21-1.51-.61-1.98s-.95-.7-1.66-.7-1.28,.24-1.75,.73-.77,1.13-.87,1.96h4.9Z"/>
      <path class="cls-1" d="M251.92,129.74h-1.56v-5.26c0-.96-.18-1.68-.53-2.16s-.88-.72-1.57-.72-1.32,.27-1.79,.81-.71,1.23-.71,2.06v5.26h-1.56v-9.22h1.56v1.53h.04c.35-.58,.77-1.02,1.27-1.31s1.09-.44,1.75-.44c1.01,0,1.78,.33,2.31,.98s.8,1.59,.8,2.82v5.64Z"/>
      <path class="cls-1" d="M262.16,120.52l-3.66,9.22h-1.57l-3.48-9.22h1.71l2.29,6.64c.08,.25,.15,.49,.21,.7s.1,.42,.12,.61h.04c.03-.23,.07-.46,.11-.66s.11-.41,.18-.6l2.4-6.68h1.65Z"/>
      <path class="cls-1" d="M264.64,118.57c-.31,0-.57-.1-.77-.31s-.31-.45-.31-.75,.1-.56,.31-.76,.46-.3,.77-.3,.57,.1,.78,.3,.31,.46,.31,.76-.1,.54-.31,.75-.47,.31-.78,.31Zm.76,11.17h-1.56v-9.22h1.56v9.22Z"/>
      <path class="cls-1" d="M275.19,129.74h-1.56v-1.45h-.04c-.32,.55-.71,.97-1.18,1.25s-1.01,.42-1.63,.42c-.87,0-1.57-.25-2.1-.76s-.8-1.17-.8-2,.27-1.46,.81-1.98,1.32-.85,2.33-.99l2.62-.35v-.21c0-.74-.18-1.28-.53-1.61s-.83-.49-1.43-.49c-.47,0-.94,.09-1.39,.27s-.88,.45-1.28,.82l-.85-.95c.52-.48,1.08-.84,1.67-1.07s1.25-.35,1.96-.35c1.12,0,1.97,.29,2.54,.87s.86,1.45,.86,2.61v5.96Zm-1.55-3.76v-.89l-2.2,.3c-.67,.09-1.18,.26-1.51,.51s-.5,.63-.5,1.16,.16,.93,.47,1.21,.71,.43,1.17,.43c.77,0,1.39-.26,1.86-.77s.7-1.17,.7-1.96Z"/>
      <path class="cls-1" d="M282.74,121.86c-.12-.04-.23-.06-.33-.08s-.22-.03-.36-.03c-.74,0-1.33,.32-1.76,.95s-.64,1.42-.64,2.39v4.66h-1.56v-9.22h1.56v1.83h.04c.21-.65,.53-1.14,.96-1.48s.93-.51,1.5-.51c.18,0,.34,0,.47,.03s.25,.04,.37,.08l-.25,1.39Z"/>
      <path class="cls-1" d="M292.19,125.49h-6.49c.03,1.02,.3,1.8,.82,2.35s1.24,.82,2.17,.82c.4,0,.82-.06,1.24-.19s.85-.33,1.28-.62l.71,1.09c-.53,.35-1.07,.61-1.61,.77s-1.13,.25-1.78,.25c-1.39,0-2.48-.41-3.26-1.24s-1.17-1.99-1.18-3.48c0-1.48,.39-2.68,1.18-3.58s1.82-1.36,3.09-1.36,2.14,.39,2.81,1.17,1,1.87,1,3.26v.75Zm-1.57-1.23c0-.85-.21-1.51-.61-1.98s-.95-.7-1.66-.7-1.28,.24-1.75,.73-.77,1.13-.87,1.96h4.9Z"/>
      <path class="cls-1" d="M307.7,129.74h-1.57v-5.3c0-1-.16-1.73-.47-2.17s-.83-.67-1.56-.67c-.62,0-1.15,.28-1.58,.84s-.65,1.24-.65,2.04v5.26h-1.56v-5.47c0-.89-.17-1.56-.51-2s-.86-.67-1.54-.67c-.64,0-1.17,.27-1.58,.8s-.62,1.23-.62,2.09v5.25h-1.56v-9.22h1.56v1.46h.04c.33-.56,.73-.98,1.21-1.26s1.03-.42,1.66-.42,1.18,.17,1.65,.52,.79,.81,.97,1.38c.34-.63,.77-1.11,1.28-1.42s1.11-.47,1.78-.47c1.01,0,1.78,.31,2.29,.94s.76,1.56,.76,2.82v5.69Z"/>
      <path class="cls-1" d="M314.46,129.96c-1.38,0-2.47-.43-3.29-1.3s-1.23-2.01-1.23-3.44c0-1.54,.42-2.75,1.27-3.61s2-1.3,3.45-1.31c1.38,0,2.46,.42,3.25,1.27s1.17,2.02,1.17,3.51-.42,2.67-1.26,3.55-1.96,1.33-3.37,1.33Zm.11-1.3c.94,0,1.66-.31,2.16-.92s.75-1.48,.75-2.61-.25-2.01-.76-2.62-1.22-.91-2.15-.91-1.67,.32-2.21,.95-.81,1.51-.81,2.62,.27,1.94,.82,2.55,1.28,.93,2.21,.93Z"/>
      <path class="cls-1" d="M320.69,129.06l.73-1.18c.39,.26,.77,.45,1.15,.59s.8,.2,1.26,.2c.62,0,1.08-.11,1.41-.34s.48-.56,.48-1.02c0-.38-.14-.69-.43-.94-.29-.25-.73-.45-1.34-.61-1.14-.29-1.93-.65-2.36-1.1s-.64-1.01-.64-1.67c0-.77,.29-1.42,.88-1.92s1.39-.76,2.41-.76c.49,0,.96,.06,1.4,.19s.89,.33,1.34,.63l-.68,1.16c-.41-.26-.78-.44-1.11-.54s-.66-.15-1-.15c-.58,0-1.03,.11-1.34,.33s-.47,.53-.47,.94,.15,.7,.46,.91,.81,.4,1.52,.58c.94,.25,1.65,.6,2.11,1.05,.47,.45,.7,1.04,.7,1.79,0,.85-.31,1.53-.92,2.03-.61,.5-1.45,.75-2.5,.75-.57,0-1.12-.08-1.64-.23s-1-.38-1.45-.67Z"/>
      <path class="cls-1" d="M341.06,129.74h-1.56v-1.45h-.04c-.32,.55-.71,.97-1.18,1.25s-1.01,.42-1.63,.42c-.87,0-1.57-.25-2.1-.76s-.8-1.17-.8-2,.27-1.46,.81-1.98,1.32-.85,2.33-.99l2.62-.35v-.21c0-.74-.18-1.28-.53-1.61-.36-.33-.83-.49-1.43-.49-.47,0-.94,.09-1.39,.27s-.88,.45-1.28,.82l-.85-.95c.52-.48,1.08-.84,1.67-1.07s1.25-.35,1.96-.35c1.12,0,1.97,.29,2.54,.87,.57,.58,.86,1.45,.86,2.61v5.96Zm-1.55-3.76v-.89l-2.2,.3c-.67,.09-1.18,.26-1.51,.51s-.5,.63-.5,1.16,.16,.93,.47,1.21,.71,.43,1.17,.43c.77,0,1.39-.26,1.86-.77s.7-1.17,.7-1.96Z"/>
      <path class="cls-1" d="M157.46,151.34h-1.56v-1.45h-.04c-.32,.55-.71,.97-1.18,1.25s-1.01,.42-1.63,.42c-.87,0-1.57-.25-2.1-.76s-.8-1.17-.8-2,.27-1.46,.81-1.98,1.32-.85,2.33-.99l2.62-.35v-.21c0-.74-.18-1.28-.53-1.61s-.83-.49-1.43-.49c-.47,0-.94,.09-1.39,.27s-.88,.45-1.28,.82l-.85-.95c.52-.48,1.08-.84,1.67-1.07s1.25-.35,1.96-.35c1.12,0,1.97,.29,2.54,.87s.86,1.45,.86,2.61v5.96Zm-1.55-3.76v-.89l-2.2,.3c-.67,.09-1.18,.26-1.51,.51s-.5,.63-.5,1.16,.16,.93,.47,1.21,.7,.43,1.17,.43c.77,0,1.39-.26,1.86-.77s.7-1.16,.7-1.96Z"/>
      <path class="cls-1" d="M164.47,150.66l.73-1.18c.39,.26,.77,.45,1.15,.59s.8,.2,1.26,.2c.62,0,1.08-.11,1.41-.34s.48-.56,.48-1.01c0-.38-.14-.69-.43-.94s-.73-.45-1.34-.61c-1.14-.29-1.93-.66-2.36-1.1s-.64-1.01-.64-1.67c0-.77,.29-1.42,.88-1.92s1.39-.76,2.41-.76c.49,0,.96,.06,1.4,.19s.89,.34,1.34,.63l-.68,1.16c-.41-.26-.78-.44-1.11-.54s-.66-.15-1-.15c-.58,0-1.03,.11-1.34,.33s-.47,.53-.47,.94,.15,.7,.46,.91,.81,.4,1.52,.58c.94,.25,1.65,.6,2.11,1.05s.7,1.04,.7,1.79c0,.85-.31,1.52-.92,2.03s-1.45,.75-2.5,.75c-.57,0-1.12-.08-1.64-.23s-1-.38-1.45-.67Z"/>
      <path class="cls-1" d="M180.82,151.34h-1.56v-1.47h-.04c-.31,.56-.7,.98-1.18,1.27s-1.04,.42-1.67,.42c-1.1,0-1.92-.33-2.46-.98s-.82-1.64-.82-2.95v-5.51h1.56v5.27c0,.96,.18,1.67,.54,2.15s.91,.72,1.64,.72,1.29-.26,1.75-.78,.68-1.21,.68-2.06v-5.3h1.56v9.22Z"/>
      <path class="cls-1" d="M193.3,151.23c-.25,.11-.5,.18-.75,.23s-.53,.08-.84,.08c-.76,0-1.35-.22-1.77-.65s-.64-1.08-.64-1.92v-5.54h-1.57v-1.3h1.57v-2.11l1.57-.5v2.61h2.3v1.3h-2.3v5.36c0,.52,.09,.9,.28,1.13s.47,.35,.84,.35c.18,0,.35-.02,.51-.06s.3-.09,.42-.15l.37,1.18Z"/>
      <path class="cls-1" d="M202.74,147.09h-6.49c.03,1.02,.3,1.8,.82,2.35s1.24,.82,2.17,.82c.4,0,.82-.06,1.24-.19s.85-.33,1.28-.62l.71,1.09c-.53,.35-1.07,.61-1.61,.77s-1.13,.25-1.78,.25c-1.39,0-2.48-.42-3.26-1.24s-1.17-1.99-1.18-3.48c0-1.48,.39-2.68,1.18-3.58s1.82-1.36,3.09-1.36,2.14,.39,2.81,1.17,1,1.87,1,3.27v.75Zm-1.57-1.23c0-.85-.21-1.51-.61-1.98s-.95-.7-1.66-.7-1.28,.24-1.75,.72-.77,1.14-.88,1.96h4.9Z"/>
      <path class="cls-1" d="M205.05,151.34v-13.32h1.56v13.32h-1.56Z"/>
      <path class="cls-1" d="M217.13,147.09h-6.49c.03,1.02,.3,1.8,.82,2.35s1.24,.82,2.17,.82c.4,0,.82-.06,1.24-.19s.85-.33,1.28-.62l.71,1.09c-.53,.35-1.07,.61-1.61,.77s-1.13,.25-1.78,.25c-1.39,0-2.48-.42-3.26-1.24s-1.17-1.99-1.18-3.48c0-1.48,.39-2.68,1.18-3.58s1.82-1.36,3.09-1.36,2.14,.39,2.81,1.17,1,1.87,1,3.27v.75Zm-1.57-1.23c0-.85-.21-1.51-.61-1.98s-.95-.7-1.66-.7-1.28,.24-1.75,.72-.77,1.14-.88,1.96h4.9Zm-2.28-5.38h-1.2l2-2.88h1.56l-2.35,2.88Z"/>
      <path class="cls-1" d="M223.88,139.27c-.16-.06-.31-.1-.45-.12s-.28-.04-.42-.04c-.49,0-.85,.13-1.08,.39s-.36,.64-.36,1.13v1.49h2.12v1.3h-2.12v7.92h-1.56v-7.92h-1.55v-1.3h1.55v-1.57c0-.86,.27-1.54,.8-2.02s1.27-.73,2.19-.73c.23,0,.45,.02,.64,.05s.39,.08,.6,.15l-.37,1.27Z"/>
      <path class="cls-1" d="M229.33,151.56c-1.38,0-2.47-.43-3.29-1.3s-1.23-2.01-1.23-3.44c0-1.54,.42-2.75,1.27-3.61s2-1.3,3.45-1.31c1.38,0,2.47,.42,3.25,1.27s1.17,2.02,1.17,3.51-.42,2.67-1.26,3.55-1.96,1.33-3.37,1.33Zm.11-1.3c.94,0,1.66-.31,2.16-.92s.75-1.48,.75-2.61-.25-2.01-.76-2.62-1.22-.91-2.15-.91-1.67,.32-2.21,.95-.81,1.51-.81,2.62,.27,1.93,.82,2.55,1.28,.93,2.21,.93Z"/>
      <path class="cls-1" d="M244.12,151.34h-1.56v-5.26c0-.96-.18-1.68-.53-2.16s-.88-.72-1.57-.72-1.32,.27-1.79,.81-.71,1.23-.71,2.06v5.26h-1.56v-9.22h1.56v1.53h.04c.35-.58,.77-1.02,1.27-1.31s1.09-.44,1.75-.44c1.01,0,1.78,.33,2.31,.98s.8,1.59,.8,2.82v5.64Z"/>
      <path class="cls-1" d="M250.87,151.56c-1.38,0-2.47-.43-3.29-1.3s-1.23-2.01-1.23-3.44c0-1.54,.42-2.75,1.27-3.61s2-1.3,3.45-1.31c1.38,0,2.47,.42,3.25,1.27s1.17,2.02,1.17,3.51-.42,2.67-1.26,3.55-1.96,1.33-3.37,1.33Zm.11-1.3c.94,0,1.66-.31,2.16-.92s.75-1.48,.75-2.61-.25-2.01-.76-2.62-1.22-.91-2.15-.91-1.67,.32-2.21,.95-.81,1.51-.81,2.62,.27,1.93,.82,2.55,1.28,.93,2.21,.93Z"/>
      <path class="cls-1" d="M276.06,151.34h-1.57v-5.3c0-1-.16-1.73-.47-2.17s-.83-.67-1.56-.67c-.62,0-1.15,.28-1.58,.84s-.65,1.24-.65,2.04v5.26h-1.56v-5.47c0-.89-.17-1.56-.51-2s-.86-.67-1.54-.67c-.64,0-1.16,.27-1.58,.8s-.62,1.23-.62,2.09v5.25h-1.56v-9.22h1.56v1.46h.04c.33-.56,.73-.98,1.21-1.26s1.03-.42,1.66-.42,1.18,.17,1.65,.52,.79,.81,.97,1.38c.34-.63,.77-1.11,1.28-1.42s1.11-.47,1.78-.47c1.01,0,1.78,.31,2.29,.94s.76,1.56,.76,2.82v5.69Z"/>
      <path class="cls-1" d="M282.81,151.56c-1.38,0-2.47-.43-3.29-1.3s-1.23-2.01-1.23-3.44c0-1.54,.42-2.75,1.27-3.61s2-1.3,3.45-1.31c1.38,0,2.47,.42,3.25,1.27s1.17,2.02,1.17,3.51-.42,2.67-1.26,3.55-1.96,1.33-3.37,1.33Zm.11-1.3c.94,0,1.66-.31,2.16-.92s.75-1.48,.75-2.61-.25-2.01-.76-2.62-1.22-.91-2.15-.91-1.67,.32-2.21,.95-.81,1.51-.81,2.62,.27,1.93,.82,2.55,1.28,.93,2.21,.93Zm-.04-9.78h-1.2l2-2.88h1.56l-2.35,2.88Z"/>
      <path class="cls-1" d="M297.25,142.12l-3.66,9.22h-1.57l-3.48-9.22h1.71l2.29,6.64c.08,.25,.15,.49,.21,.7s.09,.42,.12,.61h.04c.03-.23,.07-.46,.11-.66s.11-.41,.18-.6l2.4-6.68h1.65Z"/>
      <path class="cls-1" d="M299.74,140.17c-.31,0-.57-.1-.77-.31s-.31-.45-.31-.75,.1-.56,.31-.76,.46-.3,.77-.3,.57,.1,.78,.3,.31,.46,.31,.76-.1,.54-.31,.75-.47,.31-.78,.31Zm.76,11.17h-1.56v-9.22h1.56v9.22Z"/>
      <path class="cls-1" d="M303.65,151.34v-13.32h1.56v13.32h-1.56Z"/>
    </g>
  </g>
</svg>