<?xml version="1.0" encoding="utf-8"?>
<!-- Generator: Adobe Illustrator 26.4.1, SVG Export Plug-In . SVG Version: 6.00 Build 0)  -->
<svg version="1.1" id="Layer_1" xmlns="http://www.w3.org/2000/svg" xmlns:xlink="http://www.w3.org/1999/xlink" x="0px" y="0px"
	 viewBox="0 0 70 70" style="enable-background:new 0 0 70 70;" xml:space="preserve">
<style type="text/css">
	.st0{fill:#E31837;}
	.st1{fill:#FDBB30;}
	.st2{display:none;}
</style>
<g id="Capa_1">
	<g>
		<path class="st0" d="M70,59.7C70,65.4,65.3,70,59.5,70H10.6C4.7,70,0,65.4,0,59.7v-48C0,5.9,4.7,1.3,10.6,1.3h48.9
			C65.3,1.3,70,5.9,70,11.6V59.7z"/>
		<g>
			<path class="st1" d="M20.3,61.2H10.1L41.7,7.4l7.6,12.3C33.6,27.5,21.7,45.6,20.3,61.2"/>
			<path class="st1" d="M29.3,61.2h-8.9c3.3-18.1,15-31.8,30.2-39.1l3.1,5.3C40.7,33.7,31,46.6,29.3,61.2"/>
			<path class="st1" d="M29.5,61.2C31.6,46.7,41.9,34.9,54.7,29l6,10.4c-8.4,3.9-15.1,11.5-17.2,20.3c-0.1,0.5-0.2,1-0.3,1.5H29.5z"
				/>
		</g>
	</g>
</g>
<g id="Capa_2" class="st2">
</g>
</svg>
