<?xml version="1.0" encoding="UTF-8"?>
<svg id="Layer_1" data-name="Layer 1" xmlns="http://www.w3.org/2000/svg" viewBox="0 0 420 20">
  <defs>
    <style>
      .cls-1 {
        fill: #fff;
      }
    </style>
  </defs>
  <g>
    <g>
      <g>
        <path class="cls-1" d="M47.41,8.72h-.02l-1.02,.55-.15-.6,1.28-.68h.67v5.85h-.77v-5.11Z"/>
        <path class="cls-1" d="M54.1,7.98v.52l-2.55,5.33h-.82l2.54-5.18v-.02h-2.86v-.66h3.69Z"/>
        <path class="cls-1" d="M56.64,8.72h-.02l-1.02,.55-.15-.6,1.28-.68h.67v5.85h-.77v-5.11Z"/>
        <path class="cls-1" d="M59.47,12.35c0-.74,.44-1.26,1.16-1.57v-.03c-.66-.31-.94-.81-.94-1.31,0-.93,.78-1.56,1.81-1.56,1.13,0,1.7,.71,1.7,1.44,0,.5-.24,1.03-.96,1.37v.03c.73,.29,1.18,.8,1.18,1.51,0,1.02-.87,1.7-1.99,1.7-1.22,0-1.96-.73-1.96-1.58Zm3.15-.04c0-.71-.5-1.05-1.29-1.28-.68,.2-1.05,.65-1.05,1.21-.03,.59,.42,1.12,1.17,1.12s1.17-.44,1.17-1.04Zm-2.18-2.93c0,.58,.44,.9,1.12,1.08,.5-.17,.89-.53,.89-1.06,0-.47-.28-.95-.99-.95-.66,0-1.02,.43-1.02,.94Z"/>
      </g>
      <path class="cls-1" d="M42.31,14.93l-1.74,1.66c-.08,.08-.16,.16-.32,.24-.16,.08-.24,.08-.39,.08h-.24c-.16,0-.39,0-.79-.08s-.79-.16-1.34-.39-1.1-.55-1.81-.95c-.63-.39-1.34-1.03-2.13-1.81-.63-.55-1.1-1.18-1.5-1.66-.39-.55-.71-1.03-.95-1.5,0-.39-.24-.79-.32-1.18-.16-.39-.24-.71-.24-.95-.08-.32-.08-.47-.08-.63v-.24c0-.16,.08-.24,.08-.39,.08-.16,.16-.24,.24-.32l1.74-1.74c.08-.08,.24-.16,.39-.16,.08,0,.24,0,.32,.08,.08,.08,.16,.16,.24,.24l1.34,2.6c.08,.16,.08,.32,.08,.47s-.08,.32-.24,.39l-.63,.63s0,.08-.08,.08v.08c0,.16,.08,.39,.24,.63,.08,.24,.24,.47,.47,.71,.24,.32,.55,.63,.87,1.03,.39,.39,.71,.71,1.03,.95,.32,.24,.55,.39,.71,.47,.24,.08,.32,.16,.47,.16h.24s.08,0,.08-.08l.71-.71c.16-.16,.32-.24,.55-.24,.16,0,.24,0,.32,.08h0l2.45,1.42c.16,.08,.32,.24,.32,.39,.16,.32,.08,.47-.08,.63Z"/>
    </g>
    <g>
      <g>
        <path class="cls-1" d="M116.92,7.99v3.59c0,1.36,.6,1.94,1.41,1.94,.9,0,1.48-.59,1.48-1.94v-3.59h.79v3.54c0,1.86-.98,2.63-2.3,2.63-1.24,0-2.18-.71-2.18-2.59v-3.57h.79Z"/>
        <path class="cls-1" d="M121.9,14.06c.02-.3,.04-.74,.04-1.12V7.66h.78v2.74h.02c.28-.49,.78-.8,1.49-.8,1.08,0,1.85,.9,1.84,2.22,0,1.56-.98,2.33-1.95,2.33-.63,0-1.13-.24-1.46-.82h-.03l-.04,.72h-.68Zm.82-1.75c0,.1,.02,.2,.04,.29,.15,.55,.61,.93,1.19,.93,.83,0,1.32-.67,1.32-1.67,0-.87-.45-1.62-1.3-1.62-.54,0-1.04,.37-1.21,.97-.02,.09-.04,.2-.04,.32v.78Z"/>
        <path class="cls-1" d="M127.94,8.47c0,.27-.19,.49-.5,.49-.28,0-.48-.22-.48-.49s.21-.5,.5-.5,.49,.22,.49,.5Zm-.88,5.58v-4.36h.79v4.36h-.79Z"/>
        <path class="cls-1" d="M132.27,13.89c-.21,.11-.67,.25-1.25,.25-1.31,0-2.17-.89-2.17-2.22s.92-2.31,2.34-2.31c.47,0,.88,.12,1.1,.23l-.18,.61c-.19-.11-.49-.21-.92-.21-1,0-1.54,.74-1.54,1.65,0,1.01,.65,1.63,1.51,1.63,.45,0,.75-.12,.97-.22l.14,.59Z"/>
        <path class="cls-1" d="M135.6,14.06l-.06-.55h-.03c-.24,.34-.71,.65-1.33,.65-.88,0-1.33-.62-1.33-1.25,0-1.05,.94-1.63,2.62-1.62v-.09c0-.36-.1-1.01-.99-1.01-.4,0-.83,.13-1.13,.32l-.18-.52c.36-.23,.88-.39,1.43-.39,1.33,0,1.66,.91,1.66,1.78v1.63c0,.38,.02,.75,.07,1.04h-.72Zm-.12-2.22c-.86-.02-1.85,.14-1.85,.98,0,.51,.34,.76,.75,.76,.57,0,.93-.36,1.05-.73,.03-.08,.05-.17,.05-.25v-.76Z"/>
        <path class="cls-1" d="M140.64,13.89c-.21,.11-.67,.25-1.25,.25-1.31,0-2.17-.89-2.17-2.22s.92-2.31,2.34-2.31c.47,0,.88,.12,1.1,.23l-.18,.61c-.19-.11-.49-.21-.92-.21-1,0-1.54,.74-1.54,1.65,0,1.01,.65,1.63,1.51,1.63,.45,0,.75-.12,.97-.22l.14,.59Z"/>
        <path class="cls-1" d="M142.44,8.47c0,.27-.19,.49-.5,.49-.28,0-.48-.22-.48-.49s.21-.5,.5-.5,.49,.22,.49,.5Zm-.88,5.58v-4.36h.79v4.36h-.79Z"/>
        <path class="cls-1" d="M147.61,11.84c0,1.61-1.12,2.31-2.17,2.31-1.18,0-2.09-.86-2.09-2.24,0-1.46,.95-2.31,2.16-2.31s2.1,.91,2.1,2.24Zm-3.46,.05c0,.95,.55,1.67,1.32,1.67s1.32-.71,1.32-1.69c0-.74-.37-1.67-1.31-1.67s-1.34,.86-1.34,1.69Z"/>
        <path class="cls-1" d="M148.61,10.88c0-.45,0-.82-.04-1.18h.7l.04,.72h.02c.22-.41,.72-.82,1.44-.82,.6,0,1.54,.36,1.54,1.85v2.6h-.79v-2.51c0-.7-.26-1.29-1.01-1.29-.52,0-.93,.37-1.06,.81-.04,.1-.05,.23-.05,.37v2.62h-.79v-3.18Z"/>
        <path class="cls-1" d="M154.05,12.02c.02,1.07,.7,1.51,1.49,1.51,.57,0,.91-.1,1.21-.23l.13,.57c-.28,.13-.76,.27-1.45,.27-1.34,0-2.14-.88-2.14-2.2s.77-2.35,2.04-2.35c1.42,0,1.8,1.25,1.8,2.05,0,.16-.02,.29-.03,.37h-3.06Zm2.32-.57c0-.5-.21-1.29-1.1-1.29-.8,0-1.15,.74-1.22,1.29h2.31Z"/>
        <path class="cls-1" d="M158.01,13.25c.23,.15,.65,.31,1.04,.31,.58,0,.85-.29,.85-.65s-.23-.58-.81-.8c-.78-.28-1.15-.71-1.15-1.23,0-.7,.57-1.28,1.5-1.28,.44,0,.83,.13,1.07,.27l-.2,.58c-.17-.11-.49-.25-.89-.25-.47,0-.73,.27-.73,.59,0,.36,.26,.52,.83,.74,.76,.29,1.14,.67,1.14,1.31,0,.76-.59,1.3-1.63,1.3-.48,0-.92-.12-1.22-.3l.2-.6Z"/>
      </g>
      <path class="cls-1" d="M106.71,4.91c-2.45,0-4.42,1.97-4.42,4.42,0,.63,.16,1.26,.39,1.82,1.11,2.37,3.24,4.97,3.87,5.68q.08,.08,.16,.08c.08,0,.16,0,.16-.08,.63-.71,2.76-3.24,3.87-5.68,.24-.55,.39-1.18,.39-1.82,0-2.45-1.97-4.42-4.42-4.42Zm0,6.71c-1.26,0-2.29-1.03-2.29-2.29s1.03-2.29,2.29-2.29,2.29,1.03,2.29,2.29-1.03,2.29-2.29,2.29Z"/>
    </g>
    <g>
      <g>
        <path class="cls-1" d="M216.32,12.99c.35,.22,.86,.4,1.4,.4,.8,0,1.27-.42,1.27-1.04,0-.57-.32-.89-1.14-1.21-.99-.35-1.6-.86-1.6-1.72,0-.95,.78-1.65,1.96-1.65,.62,0,1.07,.14,1.34,.3l-.22,.64c-.2-.11-.6-.29-1.15-.29-.83,0-1.14,.5-1.14,.91,0,.57,.37,.85,1.21,1.17,1.03,.4,1.55,.89,1.55,1.78,0,.94-.69,1.75-2.12,1.75-.59,0-1.22-.17-1.55-.39l.2-.66Z"/>
        <path class="cls-1" d="M221.86,13.94l-1.54-6.07h.83l.72,3.07c.18,.76,.34,1.51,.45,2.1h.02c.1-.6,.29-1.32,.5-2.11l.81-3.06h.82l.74,3.08c.17,.72,.33,1.44,.42,2.08h.02c.13-.67,.3-1.34,.49-2.1l.8-3.06h.8l-1.72,6.07h-.82l-.77-3.16c-.19-.77-.31-1.37-.4-1.98h-.02c-.11,.6-.24,1.2-.47,1.98l-.86,3.16h-.82Z"/>
        <path class="cls-1" d="M229.26,7.88v6.07h-.78V7.88h.78Z"/>
        <path class="cls-1" d="M230.63,7.88h3.27v.66h-2.48v2.02h2.3v.65h-2.3v2.75h-.78V7.88Z"/>
        <path class="cls-1" d="M236.17,8.54h-1.84v-.67h4.49v.67h-1.85v5.4h-.79v-5.4Z"/>
        <path class="cls-1" d="M246.01,13.67c-.35,.13-1.04,.33-1.86,.33-.92,0-1.67-.23-2.27-.8-.52-.5-.85-1.31-.85-2.26,0-1.81,1.25-3.13,3.29-3.13,.7,0,1.25,.15,1.51,.28l-.19,.64c-.32-.14-.73-.26-1.34-.26-1.48,0-2.44,.92-2.44,2.44s.93,2.45,2.34,2.45c.51,0,.86-.07,1.04-.16v-1.81h-1.23v-.63h2v2.92Z"/>
        <path class="cls-1" d="M248.36,8.54h-1.85v-.67h4.49v.67h-1.85v5.4h-.79v-5.4Z"/>
        <path class="cls-1" d="M255.68,13.75c-.29,.14-.86,.29-1.6,.29-1.71,0-3-1.08-3-3.07s1.29-3.19,3.17-3.19c.76,0,1.23,.16,1.44,.27l-.19,.64c-.3-.14-.72-.25-1.22-.25-1.42,0-2.37,.91-2.37,2.5,0,1.48,.86,2.44,2.33,2.44,.48,0,.96-.1,1.28-.25l.16,.62Z"/>
        <path class="cls-1" d="M261.66,10.85c0,2.09-1.27,3.2-2.82,3.2s-2.73-1.24-2.73-3.08c0-1.93,1.2-3.19,2.82-3.19s2.73,1.27,2.73,3.07Zm-4.71,.1c0,1.3,.7,2.46,1.94,2.46s1.95-1.14,1.95-2.52c0-1.21-.63-2.47-1.94-2.47s-1.95,1.2-1.95,2.53Z"/>
        <path class="cls-1" d="M267.29,13.67c-.35,.13-1.04,.33-1.86,.33-.92,0-1.67-.23-2.27-.8-.52-.5-.85-1.31-.85-2.26,0-1.81,1.25-3.13,3.29-3.13,.7,0,1.25,.15,1.51,.28l-.19,.64c-.32-.14-.73-.26-1.34-.26-1.48,0-2.44,.92-2.44,2.44s.93,2.45,2.34,2.45c.51,0,.86-.07,1.04-.16v-1.81h-1.23v-.63h2v2.92Z"/>
        <path class="cls-1" d="M269.64,8.54h-1.84v-.67h4.49v.67h-1.85v5.4h-.79v-5.4Z"/>
        <path class="cls-1" d="M277.33,13.67c-.35,.13-1.04,.33-1.86,.33-.92,0-1.67-.23-2.27-.8-.52-.5-.85-1.31-.85-2.26,0-1.81,1.25-3.13,3.29-3.13,.7,0,1.25,.15,1.51,.28l-.19,.64c-.32-.14-.73-.26-1.34-.26-1.48,0-2.44,.92-2.44,2.44s.93,2.45,2.34,2.45c.51,0,.86-.07,1.04-.16v-1.81h-1.23v-.63h2v2.92Z"/>
        <path class="cls-1" d="M282.77,13.75c-.29,.14-.86,.29-1.6,.29-1.71,0-3-1.08-3-3.07s1.29-3.19,3.17-3.19c.76,0,1.23,.16,1.44,.27l-.19,.64c-.3-.14-.72-.25-1.22-.25-1.42,0-2.37,.91-2.37,2.5,0,1.48,.86,2.44,2.33,2.44,.48,0,.96-.1,1.28-.25l.16,.62Z"/>
      </g>
      <path class="cls-1" d="M209.86,4.87h-8.53c-.97,0-1.77,.89-1.77,1.85V15.18c0,.97,.8,1.77,1.77,1.77h8.45c.97,0,1.77-.8,1.77-1.77V6.72c.08-.97-.72-1.85-1.69-1.85Zm-8.53,10.63l5.31-9.1,1.29,2.09c-2.66,1.37-4.67,4.35-4.91,7h-1.69Zm1.77,0c.56-3.06,2.5-5.39,5.07-6.6l.48,.89c-2.17,1.05-3.86,3.22-4.11,5.72h-1.45Zm3.86-.24c0,.08,0,.16-.08,.24h-2.33c.32-2.41,2.09-4.43,4.27-5.47l1.05,1.77c-1.45,.64-2.58,1.93-2.9,3.46Z"/>
    </g>
    <g>
      <g>
        <path class="cls-1" d="M333.38,7.81h-1.84v-.67h4.49v.67h-1.85v5.4h-.79V7.81Z"/>
        <path class="cls-1" d="M337.45,7.63c0,.27-.19,.49-.5,.49-.28,0-.48-.22-.48-.49s.21-.5,.5-.5,.49,.22,.49,.5Zm-.88,5.58v-4.36h.79v4.36h-.79Z"/>
        <path class="cls-1" d="M338.67,10.28c0-.56-.02-1.01-.04-1.42h.71l.04,.75h.02c.32-.53,.84-.85,1.55-.85,1.05,0,1.84,.89,1.84,2.21,0,1.57-.95,2.34-1.98,2.34-.58,0-1.08-.25-1.34-.68h-.02v2.37h-.78v-4.72Zm.78,1.16c0,.12,.02,.23,.04,.32,.14,.55,.62,.93,1.19,.93,.84,0,1.32-.68,1.32-1.68,0-.87-.46-1.62-1.3-1.62-.54,0-1.04,.39-1.2,.98-.03,.1-.05,.22-.05,.32v.75Z"/>
        <path class="cls-1" d="M347.74,11c0,1.61-1.12,2.31-2.17,2.31-1.18,0-2.09-.86-2.09-2.24,0-1.46,.95-2.31,2.16-2.31s2.1,.91,2.1,2.24Zm-3.46,.05c0,.95,.55,1.67,1.32,1.67s1.32-.71,1.32-1.69c0-.74-.37-1.67-1.31-1.67s-1.34,.86-1.34,1.69Z"/>
        <path class="cls-1" d="M354.41,6.82v5.27c0,.39,0,.83,.04,1.12h-.71l-.04-.76h-.02c-.24,.49-.77,.86-1.49,.86-1.05,0-1.86-.89-1.86-2.21,0-1.45,.89-2.34,1.95-2.34,.67,0,1.12,.32,1.31,.67h.02v-2.6h.79Zm-.79,3.81c0-.1,0-.23-.04-.33-.12-.5-.55-.92-1.14-.92-.82,0-1.31,.72-1.31,1.68,0,.88,.43,1.61,1.29,1.61,.53,0,1.02-.35,1.16-.95,.03-.11,.04-.22,.04-.34v-.76Z"/>
        <path class="cls-1" d="M356.16,11.18c.02,1.07,.7,1.51,1.5,1.51,.57,0,.91-.1,1.21-.23l.13,.57c-.28,.13-.76,.27-1.45,.27-1.34,0-2.14-.88-2.14-2.2s.77-2.35,2.04-2.35c1.42,0,1.8,1.25,1.8,2.05,0,.16-.02,.29-.03,.37h-3.06Zm2.32-.57c0-.5-.21-1.29-1.1-1.29-.8,0-1.15,.74-1.21,1.29h2.31Z"/>
        <path class="cls-1" d="M365.24,13.05c-.21,.11-.67,.25-1.25,.25-1.31,0-2.17-.89-2.17-2.22s.92-2.31,2.34-2.31c.47,0,.88,.12,1.1,.23l-.18,.61c-.19-.11-.49-.21-.92-.21-1,0-1.54,.74-1.54,1.65,0,1.01,.65,1.63,1.51,1.63,.45,0,.75-.12,.97-.22l.13,.59Z"/>
        <path class="cls-1" d="M368.58,13.21l-.06-.55h-.03c-.24,.34-.71,.65-1.33,.65-.88,0-1.33-.62-1.33-1.25,0-1.05,.94-1.63,2.62-1.62v-.09c0-.36-.1-1.01-.99-1.01-.4,0-.83,.13-1.13,.32l-.18-.52c.36-.23,.88-.39,1.43-.39,1.33,0,1.66,.91,1.66,1.78v1.63c0,.38,.02,.75,.07,1.04h-.72Zm-.12-2.22c-.86-.02-1.85,.14-1.85,.98,0,.51,.34,.76,.75,.76,.57,0,.93-.36,1.05-.73,.03-.08,.04-.17,.04-.25v-.76Z"/>
        <path class="cls-1" d="M370.5,10.04c0-.45,0-.82-.04-1.18h.69l.04,.7h.03c.24-.41,.65-.8,1.37-.8,.59,0,1.04,.36,1.23,.87h.02c.14-.24,.31-.43,.49-.57,.26-.2,.55-.31,.96-.31,.58,0,1.43,.38,1.43,1.89v2.57h-.77v-2.47c0-.84-.31-1.34-.95-1.34-.45,0-.8,.33-.94,.72-.04,.11-.06,.25-.06,.4v2.69h-.77v-2.61c0-.69-.31-1.2-.91-1.2-.5,0-.85,.4-.98,.79-.05,.12-.06,.25-.06,.39v2.63h-.77v-3.18Z"/>
        <path class="cls-1" d="M377.97,13.21c.02-.3,.04-.74,.04-1.12V6.82h.78v2.74h.02c.28-.49,.78-.8,1.49-.8,1.08,0,1.85,.9,1.84,2.22,0,1.56-.98,2.33-1.95,2.33-.63,0-1.13-.24-1.46-.82h-.03l-.04,.72h-.68Zm.82-1.75c0,.1,.02,.2,.04,.29,.15,.55,.61,.93,1.19,.93,.83,0,1.32-.67,1.32-1.67,0-.87-.45-1.62-1.3-1.62-.54,0-1.04,.37-1.21,.97-.02,.09-.04,.2-.04,.32v.78Z"/>
        <path class="cls-1" d="M384.01,7.63c0,.27-.19,.49-.5,.49-.28,0-.48-.22-.48-.49s.21-.5,.5-.5,.49,.22,.49,.5Zm-.88,5.58v-4.36h.79v4.36h-.79Z"/>
        <path class="cls-1" d="M389.18,11c0,1.61-1.12,2.31-2.17,2.31-1.18,0-2.09-.86-2.09-2.24,0-1.46,.95-2.31,2.16-2.31s2.1,.91,2.1,2.24Zm-3.46,.05c0,.95,.55,1.67,1.32,1.67s1.32-.71,1.32-1.69c0-.74-.37-1.67-1.31-1.67s-1.34,.86-1.34,1.69Z"/>
      </g>
      <path class="cls-1" d="M326.36,10.35c-.48-.24-.96-.48-1.52-.64-.32-.16-.56-.24-.8-.48-.48-.4-.4-1.04,.24-1.28,.16-.08,.32-.08,.48-.08,.64,0,1.28,.08,1.84,.4,.32,.16,.4,.08,.48-.24s.16-.64,.32-.96c.08-.24,0-.4-.24-.48-.4-.16-.8-.32-1.2-.32q-.56-.08-.56-.64,0-.72-.8-.72h-.32c-.32,0-.4,.08-.4,.4v.48q0,.48-.48,.64c-1.04,.32-1.68,1.12-1.76,2.32-.08,1.04,.48,1.76,1.36,2.32,.56,.32,1.12,.48,1.68,.8,.24,.08,.4,.24,.64,.4,.56,.48,.48,1.2-.24,1.52-.32,.16-.72,.16-1.12,.16-.56-.08-1.12-.24-1.68-.48-.24-.32-.32-.32-.4,.08-.08,.32-.16,.56-.24,.88-.08,.4-.08,.48,.32,.64,.48,.24,.96,.32,1.52,.4q.4,.08,.4,.48v.56c0,.24,.08,.4,.4,.4h.88c.24,0,.32-.16,.32-.4v-.8c0-.24,.08-.4,.32-.48,.56-.16,1.12-.48,1.44-.96,1.04-1.2,.64-3.12-.88-3.92Z"/>
    </g>
  </g>
  <polygon class="cls-1" points="395 12.46 392 9.77 392.22 9.54 395 12.01 397.78 9.54 398 9.77 395 12.46"/>
</svg>