<?xml version="1.0" encoding="UTF-8"?>
<svg id="Layer_1" data-name="Layer 1" xmlns="http://www.w3.org/2000/svg" viewBox="0 0 420 18">
  <defs>
    <style>
      .cls-1 {
        fill: #0869b1;
      }

      .cls-2 {
        fill: #0868b1;
      }
    </style>
  </defs>
  <g>
    <path class="cls-2" d="M36.68,4.29c.68,.12,1.37,.18,2.05,.17,.32-.05,.64-.12,.96-.21,.58-.15,1.29-.33,1.57-.24,.49,.16,2.15,.78,2.18,.79s.38,.12,.61,.8l.21,.54h-.16c-.36,0-.71,.09-1.02,.27-.15-.21-.33-.39-.54-.54-.38-.18-.83-.21-1.23-.07h-.04c-.31,.07-.61,.22-.86,.42-.21,.16-.31,.43-.26,.7,.08,.42,.42,.48,.79,.57l.17,.04c.1,.03,.19,.04,.3,.05,.52,.04,1.01,.3,1.33,.72,.19,.22,.24,.42,.13,.6-.08,.14-.24,.21-.4,.19-.08-.02-2.1-.54-2.51-.61l-.26-.03c-.55-.02-1.08-.21-1.52-.55-.18-.13-.34-.28-.5-.44-.32-.37-.77-.61-1.26-.68-.09,0-.16,.07-.16,.15,0,.07,.04,.13,.1,.15,.42,.06,.81,.27,1.09,.59,.18,.18,.36,.34,.56,.49,.48,.38,1.07,.59,1.68,.62l.24,.03c.39,.06,2.3,.56,2.45,.6,.66,.95,1.96,1.2,2.91,.54,.95-.66,1.2-1.96,.54-2.91-.29-.42-.72-.72-1.22-.85l-.28-.71c-.28-.84-.78-.98-.78-.98,0,0-1.68-.63-2.18-.79-.36-.12-1.06,.06-1.74,.23-.3,.08-.61,.15-.91,.2-.66,0-1.32-.05-1.97-.17-.09,0-.16,.07-.16,.16,0,.07,.04,.13,.11,.15h-.03Zm4.52,2.97l-.18-.04c-.38-.08-.51-.13-.55-.32-.03-.15,.03-.3,.16-.39,.22-.17,.47-.3,.74-.36h.04c.33-.12,.69-.11,1.01,.04,.16,.12,.3,.26,.42,.42-.3,.24-.53,.55-.67,.91-.22-.1-.46-.17-.7-.21-.09-.01-.18-.03-.26-.05Zm4.69,.97c0,.98-.8,1.78-1.78,1.78-.51,0-1-.22-1.34-.61,.15-.06,.28-.16,.37-.3,.18-.32,.11-.73-.16-.98-.16-.19-.35-.35-.55-.49,.33-.93,1.35-1.41,2.28-1.07,.7,.25,1.17,.92,1.18,1.67h.01Zm-9.74-1.17l.32-3.1c.02-.21-.12-.39-.33-.42,0,0,0,0,0,0l-1.2-.12c-.21-.02-.39,.12-.42,.33,0,0,0,0,0,0l-.32,3.11c-.02,.21,.12,.39,.33,.42,0,0,0,0,0,0l1.19,.13h.04c.19,0,.36-.15,.38-.34h0Zm-.38,.02l-1.19-.13s-.06-.03-.06-.07c0,0,0,0,0,0l.32-3.11s.03-.05,.06-.05h0l1.19,.13s.06,.03,.06,.07c0,0,0,0,0,0l-.32,3.1s-.04,.06-.07,.06h0Zm7.75,.67c-.23,.3-.18,.73,.12,.96,.04,.03,.09,.06,.13,.08,.12,.05,.21,.16,.23,.28,0,.03,.03,.06,.06,.07,.06,.03,.13,.01,.16-.05,.01-.03,.01-.06,0-.09,0-.04-.02-.08-.05-.12,.27-.04,.5-.21,.6-.47,.25-.32,.19-.77-.13-1.02-.32-.25-.77-.19-1.02,.13-.05,.06-.09,.13-.11,.21h0Zm.91-.17c.28,.15,.33,.42,.15,.74s-.42,.42-.7,.28-.33-.42-.15-.74,.42-.44,.7-.29h0Zm1.64,7.28c0,.75-1.29,1.01-2.39,1.01s-2.39-.26-2.39-1.01c0-.09,.07-.16,.16-.16s.16,.07,.16,.16c0,.39,.91,.7,2.07,.7s2.07-.31,2.07-.7c.01-.09,.1-.15,.18-.13,.07,.01,.12,.06,.13,.13Zm-5.41,0c0,.75-1.29,1.01-2.39,1.01s-2.39-.26-2.39-1.01c0-.09,.07-.16,.16-.16s.16,.07,.16,.16c0,.39,.91,.7,2.07,.7s2.07-.31,2.07-.7c0-.09,.07-.16,.16-.16s.16,.07,.16,.16Zm-4.83-1.16c0-.09,.07-.16,.16-.16s.16,.07,.16,.16h0c0,.39,.91,.7,2.07,.7s2.07-.31,2.07-.7c0-.09,.07-.16,.16-.16s.16,.07,.16,.16h0c0,.75-1.29,1.01-2.39,1.01s-2.39-.26-2.39-1.01Zm2.39-3.08c-1.1,0-2.39,.26-2.39,1.01v.03h0v.81c0,.73,1.26,1.07,2.39,1.07s2.39-.34,2.39-1.07v-.8h0v-.03c.01-.75-1.29-1.02-2.39-1.02Zm0,.31c1.16,0,2.07,.31,2.07,.7s-.93,.7-2.07,.7-2.07-.31-2.07-.7,.91-.7,2.07-.7Zm0,2.3c-1.16,0-2.07-.33-2.07-.75v-.3c.45,.33,1.31,.46,2.07,.46s1.63-.13,2.07-.46v.3c0,.42-.93,.75-2.07,.75Zm5.45-1.46c-1.1,0-2.39,.26-2.39,1.01v.03h0v.81c0,.73,1.26,1.07,2.39,1.07s2.39-.34,2.39-1.07v-.79h0v-.03c.01-.76-1.27-1.03-2.37-1.03h-.02Zm0,.31c1.16,0,2.07,.31,2.07,.7s-.91,.7-2.07,.7-2.07-.31-2.07-.7,.93-.7,2.09-.7h-.02Zm0,2.3c-1.16,0-2.07-.33-2.07-.75v-.3c.45,.33,1.31,.46,2.07,.46s1.63-.13,2.07-.46v.3c.02,.42-.89,.75-2.06,.75h-.02Z"/>
    <g>
      <path class="cls-1" d="M52.84,10.88l-.63,1.91h-.81l2.06-6.07h.95l2.07,6.07h-.84l-.65-1.91h-2.15Zm1.99-.61l-.59-1.75c-.14-.4-.23-.76-.32-1.11h-.02c-.09,.36-.19,.73-.31,1.1l-.59,1.76h1.83Z"/>
      <path class="cls-1" d="M57.31,6.4h.79v2.72h.02c.13-.23,.32-.42,.57-.56,.23-.13,.51-.22,.81-.22,.59,0,1.52,.36,1.52,1.86v2.59h-.79v-2.5c0-.7-.26-1.3-1.01-1.3-.51,0-.92,.36-1.06,.79-.04,.11-.05,.22-.05,.38v2.63h-.79V6.4Z"/>
      <path class="cls-1" d="M66.25,10.58c0,1.61-1.12,2.31-2.17,2.31-1.18,0-2.09-.86-2.09-2.24,0-1.46,.95-2.31,2.16-2.31s2.1,.91,2.1,2.24Zm-3.46,.04c0,.95,.55,1.67,1.32,1.67s1.32-.71,1.32-1.69c0-.74-.37-1.67-1.31-1.67s-1.34,.86-1.34,1.69Z"/>
      <path class="cls-1" d="M67.25,9.79c0-.51,0-.95-.04-1.36h.69l.03,.86h.04c.2-.58,.68-.95,1.21-.95,.09,0,.15,0,.22,.03v.75c-.08-.02-.16-.03-.27-.03-.56,0-.95,.42-1.06,1.02-.02,.11-.04,.23-.04,.37v2.32h-.78v-3Z"/>
      <path class="cls-1" d="M70.23,9.79c0-.51,0-.95-.04-1.36h.69l.03,.86h.04c.2-.58,.68-.95,1.21-.95,.09,0,.15,0,.23,.03v.75c-.08-.02-.16-.03-.27-.03-.56,0-.95,.42-1.06,1.02-.02,.11-.04,.23-.04,.37v2.32h-.78v-3Z"/>
      <path class="cls-1" d="M77.02,10.58c0,1.61-1.12,2.31-2.17,2.31-1.18,0-2.09-.86-2.09-2.24,0-1.46,.95-2.31,2.16-2.31s2.1,.91,2.1,2.24Zm-3.46,.04c0,.95,.55,1.67,1.32,1.67s1.32-.71,1.32-1.69c0-.74-.37-1.67-1.31-1.67s-1.34,.86-1.34,1.69Z"/>
      <path class="cls-1" d="M77.91,11.98c.23,.15,.65,.32,1.04,.32,.58,0,.85-.29,.85-.65s-.23-.58-.81-.8c-.78-.28-1.15-.71-1.15-1.23,0-.7,.57-1.28,1.5-1.28,.44,0,.83,.13,1.07,.27l-.2,.58c-.17-.11-.49-.25-.89-.25-.47,0-.73,.27-.73,.59,0,.36,.26,.52,.83,.74,.76,.29,1.14,.67,1.14,1.31,0,.77-.59,1.31-1.63,1.31-.48,0-.92-.12-1.22-.3l.2-.6Z"/>
    </g>
  </g>
  <g>
    <g>
      <path class="cls-1" d="M131.88,12.48c-.29,.14-.86,.29-1.6,.29-1.71,0-3-1.08-3-3.07s1.29-3.19,3.17-3.19c.76,0,1.23,.16,1.44,.27l-.19,.64c-.3-.14-.72-.25-1.22-.25-1.42,0-2.37,.91-2.37,2.5,0,1.49,.86,2.44,2.33,2.44,.48,0,.96-.1,1.28-.25l.16,.62Z"/>
      <path class="cls-1" d="M136.37,11.49c0,.45,0,.85,.04,1.19h-.7l-.04-.71h-.02c-.21,.35-.67,.81-1.44,.81-.68,0-1.5-.38-1.5-1.91v-2.55h.79v2.41c0,.83,.25,1.39,.97,1.39,.53,0,.9-.37,1.04-.72,.04-.12,.07-.26,.07-.41v-2.67h.79v3.17Z"/>
      <path class="cls-1" d="M138.12,10.64c.02,1.07,.7,1.51,1.49,1.51,.57,0,.91-.1,1.21-.22l.13,.57c-.28,.13-.76,.27-1.45,.27-1.34,0-2.14-.88-2.14-2.2s.77-2.35,2.04-2.35c1.42,0,1.8,1.25,1.8,2.05,0,.16-.02,.29-.03,.37h-3.06Zm2.32-.57c0-.5-.21-1.29-1.1-1.29-.8,0-1.15,.74-1.22,1.29h2.31Z"/>
      <path class="cls-1" d="M142.19,9.5c0-.45,0-.82-.04-1.18h.7l.04,.72h.02c.22-.41,.72-.82,1.44-.82,.6,0,1.54,.36,1.54,1.85v2.6h-.79v-2.51c0-.7-.26-1.29-1.01-1.29-.52,0-.93,.37-1.06,.81-.04,.1-.05,.23-.05,.37v2.62h-.79v-3.18Z"/>
      <path class="cls-1" d="M148.1,7.07v1.25h1.13v.6h-1.13v2.35c0,.54,.15,.85,.59,.85,.21,0,.36-.03,.46-.05l.04,.59c-.15,.06-.4,.11-.7,.11-.37,0-.67-.12-.85-.33-.23-.23-.31-.62-.31-1.13v-2.38h-.68v-.6h.68v-1.04l.77-.21Z"/>
      <path class="cls-1" d="M152.54,12.68l-.06-.55h-.03c-.24,.34-.71,.65-1.33,.65-.88,0-1.33-.62-1.33-1.25,0-1.05,.94-1.63,2.62-1.62v-.09c0-.36-.1-1.01-.99-1.01-.41,0-.83,.13-1.13,.32l-.18-.52c.36-.23,.88-.39,1.43-.39,1.33,0,1.66,.91,1.66,1.78v1.63c0,.38,.02,.75,.07,1.04h-.72Zm-.12-2.22c-.86-.02-1.85,.13-1.85,.98,0,.51,.34,.76,.75,.76,.57,0,.93-.36,1.05-.73,.03-.08,.04-.17,.04-.25v-.76Z"/>
      <path class="cls-1" d="M154.36,11.87c.23,.15,.65,.32,1.04,.32,.58,0,.85-.29,.85-.65s-.23-.58-.81-.8c-.78-.28-1.15-.71-1.15-1.23,0-.7,.57-1.28,1.5-1.28,.44,0,.83,.13,1.07,.27l-.2,.58c-.17-.11-.49-.25-.89-.25-.47,0-.73,.27-.73,.59,0,.36,.26,.52,.83,.74,.76,.29,1.14,.67,1.14,1.31,0,.77-.59,1.31-1.63,1.31-.48,0-.92-.12-1.22-.3l.2-.6Z"/>
      <path class="cls-1" d="M165.08,10.01c-.04-.85-.1-1.86-.09-2.62h-.03c-.21,.71-.46,1.47-.77,2.3l-1.07,2.94h-.59l-.98-2.89c-.29-.86-.53-1.64-.7-2.36h-.02c-.02,.76-.06,1.77-.12,2.68l-.16,2.6h-.75l.42-6.07h1l1.04,2.93c.25,.75,.46,1.41,.61,2.04h.03c.15-.61,.37-1.28,.64-2.04l1.08-2.93h1l.38,6.07h-.77l-.15-2.67Z"/>
      <path class="cls-1" d="M171.17,10.46c0,1.61-1.12,2.31-2.17,2.31-1.18,0-2.09-.86-2.09-2.24,0-1.46,.95-2.31,2.16-2.31s2.1,.91,2.1,2.24Zm-3.46,.04c0,.95,.55,1.67,1.32,1.67s1.32-.71,1.32-1.69c0-.74-.37-1.67-1.31-1.67s-1.34,.86-1.34,1.69Z"/>
      <path class="cls-1" d="M172.17,9.5c0-.45,0-.82-.04-1.18h.7l.04,.72h.02c.22-.41,.72-.82,1.44-.82,.6,0,1.54,.36,1.54,1.85v2.6h-.79v-2.51c0-.7-.26-1.29-1.01-1.29-.52,0-.93,.37-1.06,.81-.04,.1-.05,.23-.05,.37v2.62h-.79v-3.18Z"/>
      <path class="cls-1" d="M177.6,10.64c.02,1.07,.7,1.51,1.49,1.51,.57,0,.91-.1,1.21-.22l.13,.57c-.28,.13-.76,.27-1.45,.27-1.34,0-2.14-.88-2.14-2.2s.77-2.35,2.04-2.35c1.42,0,1.8,1.25,1.8,2.05,0,.16-.02,.29-.03,.37h-3.06Zm2.32-.57c0-.5-.21-1.29-1.1-1.29-.8,0-1.15,.74-1.22,1.29h2.31Z"/>
      <path class="cls-1" d="M182.62,7.07v1.25h1.13v.6h-1.13v2.35c0,.54,.15,.85,.59,.85,.21,0,.36-.03,.46-.05l.04,.59c-.15,.06-.4,.11-.7,.11-.37,0-.67-.12-.85-.33-.23-.23-.31-.62-.31-1.13v-2.38h-.68v-.6h.68v-1.04l.77-.21Z"/>
      <path class="cls-1" d="M187.06,12.68l-.06-.55h-.03c-.24,.34-.71,.65-1.33,.65-.88,0-1.33-.62-1.33-1.25,0-1.05,.94-1.63,2.62-1.62v-.09c0-.36-.1-1.01-.99-1.01-.41,0-.83,.13-1.13,.32l-.18-.52c.36-.23,.88-.39,1.43-.39,1.33,0,1.66,.91,1.66,1.78v1.63c0,.38,.02,.75,.07,1.04h-.72Zm-.12-2.22c-.86-.02-1.85,.13-1.85,.98,0,.51,.34,.76,.75,.76,.57,0,.93-.36,1.05-.73,.03-.08,.04-.17,.04-.25v-.76Z"/>
      <path class="cls-1" d="M188.99,9.68c0-.51,0-.95-.04-1.36h.69l.03,.86h.04c.2-.58,.68-.95,1.21-.95,.09,0,.15,0,.23,.03v.75c-.08-.02-.16-.03-.27-.03-.56,0-.95,.42-1.06,1.02-.02,.11-.04,.23-.04,.37v2.32h-.78v-3Z"/>
      <path class="cls-1" d="M192.85,7.1c0,.27-.19,.49-.5,.49-.28,0-.48-.22-.48-.49s.21-.5,.5-.5,.49,.22,.49,.5Zm-.88,5.58v-4.36h.79v4.36h-.79Z"/>
      <path class="cls-1" d="M196.48,12.68l-.06-.55h-.03c-.24,.34-.71,.65-1.33,.65-.88,0-1.33-.62-1.33-1.25,0-1.05,.94-1.63,2.62-1.62v-.09c0-.36-.1-1.01-.99-1.01-.41,0-.83,.13-1.13,.32l-.18-.52c.36-.23,.88-.39,1.43-.39,1.33,0,1.66,.91,1.66,1.78v1.63c0,.38,.02,.75,.07,1.04h-.72Zm-.12-2.22c-.86-.02-1.85,.13-1.85,.98,0,.51,.34,.76,.75,.76,.57,0,.93-.36,1.05-.73,.03-.08,.04-.17,.04-.25v-.76Z"/>
      <path class="cls-1" d="M198.3,11.87c.23,.15,.65,.32,1.04,.32,.58,0,.85-.29,.85-.65s-.23-.58-.81-.8c-.78-.28-1.15-.71-1.15-1.23,0-.7,.57-1.28,1.5-1.28,.44,0,.83,.13,1.07,.27l-.2,.58c-.17-.11-.49-.25-.89-.25-.47,0-.73,.27-.73,.59,0,.36,.26,.52,.83,.74,.76,.29,1.14,.67,1.14,1.31,0,.77-.59,1.31-1.63,1.31-.48,0-.92-.12-1.22-.3l.2-.6Z"/>
    </g>
    <path class="cls-2" d="M124.77,6.02h-15.74c-.26,0-.47,.21-.47,.47v6.31c0,.26,.21,.47,.47,.47h15.74c.26,0,.47-.21,.47-.47V6.48c0-.25-.21-.45-.47-.45Zm.11,6.78c0,.06-.05,.11-.11,.11h-15.74c-.06,0-.11-.05-.11-.11V6.48c0-.06,.05-.1,.11-.1h15.74c.06,0,.11,.05,.11,.11v6.31Zm-13.09-4.74c-.96,0-1.5,.6-1.5,1.67s.53,1.67,1.5,1.67c.27-.04,.54,.08,.7,.3,.09,.1,.24,.1,.34,.01,.05-.05,.08-.11,.08-.17,0-.06-.02-.12-.07-.17-.06-.07-.13-.13-.2-.18,.46-.34,.71-.89,.65-1.46,0-1.08-.53-1.67-1.49-1.67Zm0,2.88c-.67,0-1-.41-1-1.21s.34-1.21,1-1.21,1,.41,1,1.21-.32,1.21-1,1.21Zm9-3.45c0-.1,.08-.17,.17-.17,0,0,0,0,0,0h2.46c.1,0,.17,.08,.17,.17s-.08,.17-.17,.17h-2.46c-.1,0-.17-.07-.18-.17,0,0,0,0,0,0Zm2.88,2.24c0,.1-.08,.17-.17,.18h-8.85c-.1,0-.17-.08-.17-.17s.08-.17,.17-.17h8.85c.1,0,.17,.07,.18,.17,0,0,0,0,0,0h0Zm-4.78,1.45c0,.1-.08,.17-.17,.18h-4.06c-.1-.02-.16-.11-.15-.2,.01-.07,.07-.13,.15-.15h4.06c.1,0,.17,.08,.18,.17Z"/>
  </g>
  <g>
    <g>
      <path class="cls-1" d="M247.78,12.59c-.29,.14-.86,.29-1.6,.29-1.71,0-3-1.08-3-3.07s1.29-3.19,3.17-3.19c.76,0,1.23,.16,1.44,.27l-.19,.64c-.3-.14-.72-.25-1.22-.25-1.42,0-2.37,.91-2.37,2.5,0,1.49,.86,2.44,2.33,2.44,.48,0,.96-.1,1.28-.25l.16,.62Z"/>
      <path class="cls-1" d="M248.7,9.79c0-.51,0-.95-.04-1.36h.69l.03,.86h.04c.2-.58,.67-.95,1.21-.95,.09,0,.15,0,.22,.03v.75c-.08-.02-.16-.03-.27-.03-.56,0-.95,.42-1.06,1.02-.02,.11-.04,.23-.04,.37v2.32h-.78v-3Z"/>
      <path class="cls-1" d="M252,10.76c.02,1.07,.7,1.51,1.5,1.51,.57,0,.91-.1,1.21-.22l.13,.57c-.28,.13-.76,.27-1.45,.27-1.34,0-2.14-.88-2.14-2.2s.77-2.35,2.04-2.35c1.42,0,1.8,1.25,1.8,2.05,0,.16-.02,.29-.03,.37h-3.06Zm2.32-.57c0-.5-.21-1.29-1.1-1.29-.8,0-1.15,.74-1.21,1.29h2.31Zm.19-3.64l-1.1,1.29h-.57l.79-1.29h.87Z"/>
      <path class="cls-1" d="M259.83,6.4v5.27c0,.39,0,.83,.04,1.12h-.71l-.04-.76h-.02c-.24,.49-.77,.85-1.49,.85-1.05,0-1.86-.89-1.86-2.21,0-1.45,.89-2.34,1.95-2.34,.67,0,1.12,.31,1.31,.67h.02v-2.6h.79Zm-.79,3.81c0-.1,0-.23-.04-.33-.12-.5-.55-.92-1.14-.92-.82,0-1.3,.72-1.3,1.68,0,.88,.43,1.61,1.29,1.61,.53,0,1.02-.35,1.16-.95,.03-.11,.04-.22,.04-.34v-.76Z"/>
      <path class="cls-1" d="M262.02,7.21c0,.27-.19,.49-.5,.49-.28,0-.48-.22-.48-.49s.21-.5,.5-.5,.49,.22,.49,.5Zm-.88,5.58v-4.36h.79v4.36h-.79Z"/>
      <path class="cls-1" d="M264.2,7.18v1.25h1.13v.6h-1.13v2.35c0,.54,.15,.85,.59,.85,.21,0,.36-.03,.46-.05l.04,.59c-.15,.06-.4,.11-.7,.11-.37,0-.67-.12-.86-.33-.22-.23-.31-.62-.31-1.13v-2.38h-.68v-.6h.68v-1.04l.77-.21Z"/>
      <path class="cls-1" d="M270.11,10.58c0,1.61-1.12,2.31-2.17,2.31-1.18,0-2.09-.86-2.09-2.24,0-1.46,.95-2.31,2.16-2.31s2.1,.91,2.1,2.24Zm-3.46,.04c0,.95,.55,1.67,1.32,1.67s1.32-.71,1.32-1.69c0-.74-.37-1.67-1.3-1.67s-1.34,.86-1.34,1.69Z"/>
      <path class="cls-1" d="M271,11.98c.23,.15,.65,.32,1.04,.32,.58,0,.85-.29,.85-.65s-.22-.58-.81-.8c-.78-.28-1.15-.71-1.15-1.23,0-.7,.57-1.28,1.5-1.28,.44,0,.83,.13,1.07,.27l-.2,.58c-.17-.11-.49-.25-.89-.25-.47,0-.73,.27-.73,.59,0,.36,.26,.52,.83,.74,.76,.29,1.14,.67,1.14,1.31,0,.77-.59,1.31-1.63,1.31-.48,0-.92-.12-1.22-.3l.2-.6Z"/>
    </g>
    <path class="cls-2" d="M240.48,10.61c-.36-.81-.83-1.56-1.38-2.24l-.83-.97c-.18-.18-.6-.57-.89-.86,.24-.06,.4-.28,.39-.52,0-.28-.23-.51-.51-.51h-.26c.26-.41,.67-1.07,.85-1.43,.31-.61,.4-1.02,.28-1.3-.08-.18-.25-.3-.45-.32-.38,0-.76,.06-1.11,.2-.51,.18-1.05,.29-1.6,.32-.55-.03-1.09-.14-1.6-.32-.35-.14-.72-.21-1.09-.21-.2,.02-.37,.14-.45,.32-.12,.28-.03,.69,.28,1.3,.18,.35,.63,1.02,.92,1.43h-.33c-.29,0-.52,.24-.51,.53,0,0,0,.01,0,.02,0,.23,.16,.44,.38,.48-1.35,1.31-3.87,4.11-3.57,6.66,.17,1.56,1.28,2.69,3.2,3.26,.88,.25,1.79,.38,2.7,.39h.16c.91,0,1.82-.14,2.7-.39,1.94-.57,3.02-1.69,3.2-3.26,.08-.89-.08-1.78-.45-2.59Zm-7.12-5.22c-.27-.39-.77-1.12-.97-1.48-.32-.64-.31-.89-.27-.97,.03-.08,.1-.13,.18-.13,.32,0,.64,.07,.93,.19,.55,.2,1.13,.31,1.71,.34,.58-.03,1.16-.14,1.71-.33,.3-.12,.61-.18,.93-.19,.07,0,.14,.05,.16,.11,.04,.09,.06,.35-.27,.97-.2,.4-.74,1.26-.97,1.59h-3.1l-.07-.11Zm-.69,.48h4.57c.08,0,.15,.07,.15,.19,0,.08-.07,.15-.15,.15h-4.56c-.08,0-.15-.07-.15-.19,0-.08,.06-.15,.14-.16,0,0,0,0,0,0h0Zm7.9,7.3c-.16,1.4-1.18,2.42-2.94,2.95-.84,.24-1.72,.37-2.6,.37h-.08c-.9,0-1.8-.12-2.67-.37-1.77-.52-2.78-1.54-2.94-2.95-.3-2.63,2.75-5.7,3.7-6.59h3.82c.3,.28,.92,.87,1.14,1.1l.82,.93c.54,.66,.98,1.38,1.33,2.15,.34,.75,.48,1.58,.41,2.41Z"/>
  </g>
  <g>
    <g>
      <path class="cls-1" d="M318.21,6.5h-1.85v-.67h4.49v.67h-1.85v5.4h-.79V6.5Z"/>
      <path class="cls-1" d="M323.34,11.9l-.06-.55h-.03c-.24,.34-.71,.65-1.33,.65-.88,0-1.33-.62-1.33-1.25,0-1.05,.94-1.63,2.62-1.62v-.09c0-.36-.1-1.01-.99-1.01-.41,0-.83,.13-1.13,.32l-.18-.52c.36-.23,.88-.39,1.43-.39,1.33,0,1.66,.91,1.66,1.78v1.63c0,.38,.02,.75,.07,1.04h-.72Zm-.12-2.22c-.86-.02-1.85,.13-1.85,.98,0,.51,.34,.76,.75,.76,.57,0,.93-.36,1.05-.73,.03-.08,.05-.17,.05-.25v-.76Z"/>
      <path class="cls-1" d="M325.27,8.9c0-.51,0-.95-.04-1.36h.69l.03,.86h.04c.2-.58,.68-.95,1.21-.95,.09,0,.15,0,.22,.03v.75c-.08-.02-.16-.03-.27-.03-.56,0-.95,.42-1.06,1.02-.02,.11-.04,.23-.04,.37v2.32h-.78v-3Z"/>
      <path class="cls-1" d="M327.15,13.16c.36-.03,.68-.13,.86-.33,.22-.25,.3-.59,.3-1.64v-3.65h.79v3.95c0,.85-.13,1.4-.52,1.79-.35,.35-.93,.5-1.35,.5l-.08-.62Zm2.04-6.84c0,.26-.18,.49-.5,.49-.3,0-.49-.22-.49-.49,0-.28,.21-.5,.5-.5s.48,.22,.48,.5Z"/>
      <path class="cls-1" d="M330.84,9.87c.02,1.07,.7,1.51,1.5,1.51,.57,0,.91-.1,1.21-.22l.13,.57c-.28,.13-.76,.27-1.45,.27-1.34,0-2.14-.88-2.14-2.2s.77-2.35,2.04-2.35c1.42,0,1.8,1.25,1.8,2.05,0,.16-.02,.29-.03,.37h-3.06Zm2.32-.57c0-.5-.21-1.29-1.1-1.29-.8,0-1.15,.74-1.21,1.29h2.31Z"/>
      <path class="cls-1" d="M335.86,6.29v1.25h1.13v.6h-1.13v2.35c0,.54,.15,.85,.59,.85,.21,0,.36-.03,.46-.05l.04,.59c-.15,.06-.4,.11-.7,.11-.37,0-.67-.12-.86-.33-.22-.23-.31-.62-.31-1.13v-2.38h-.68v-.6h.68v-1.04l.77-.21Z"/>
      <path class="cls-1" d="M340.3,11.9l-.06-.55h-.03c-.24,.34-.71,.65-1.33,.65-.88,0-1.33-.62-1.33-1.25,0-1.05,.94-1.63,2.62-1.62v-.09c0-.36-.1-1.01-.99-1.01-.41,0-.83,.13-1.13,.32l-.18-.52c.36-.23,.88-.39,1.43-.39,1.33,0,1.66,.91,1.66,1.78v1.63c0,.38,.02,.75,.07,1.04h-.72Zm-.12-2.22c-.86-.02-1.85,.13-1.85,.98,0,.51,.34,.76,.75,.76,.57,0,.93-.36,1.05-.73,.03-.08,.04-.17,.04-.25v-.76Z"/>
      <path class="cls-1" d="M342.12,11.09c.23,.15,.65,.32,1.04,.32,.58,0,.85-.29,.85-.65s-.22-.58-.81-.8c-.78-.28-1.15-.71-1.15-1.23,0-.7,.57-1.28,1.5-1.28,.44,0,.83,.13,1.07,.27l-.2,.58c-.17-.11-.49-.25-.89-.25-.47,0-.73,.27-.73,.59,0,.36,.26,.52,.83,.74,.76,.29,1.14,.67,1.14,1.31,0,.77-.59,1.31-1.63,1.31-.48,0-.92-.12-1.22-.3l.2-.6Z"/>
      <path class="cls-1" d="M351.46,5.51v5.27c0,.39,0,.83,.04,1.12h-.71l-.04-.76h-.02c-.24,.49-.77,.85-1.49,.85-1.05,0-1.86-.89-1.86-2.21,0-1.45,.89-2.34,1.95-2.34,.67,0,1.12,.31,1.31,.67h.02v-2.6h.79Zm-.79,3.81c0-.1,0-.23-.04-.33-.12-.5-.55-.92-1.14-.92-.82,0-1.3,.72-1.3,1.68,0,.88,.43,1.61,1.29,1.61,.53,0,1.02-.35,1.16-.95,.03-.11,.04-.22,.04-.34v-.76Z"/>
      <path class="cls-1" d="M353.21,9.87c.02,1.07,.7,1.51,1.5,1.51,.57,0,.91-.1,1.21-.22l.13,.57c-.28,.13-.76,.27-1.45,.27-1.34,0-2.14-.88-2.14-2.2s.77-2.35,2.04-2.35c1.42,0,1.8,1.25,1.8,2.05,0,.16-.02,.29-.03,.37h-3.06Zm2.32-.57c0-.5-.21-1.29-1.1-1.29-.8,0-1.15,.74-1.21,1.29h2.31Z"/>
      <path class="cls-1" d="M363.46,11.7c-.29,.14-.86,.29-1.6,.29-1.71,0-3-1.08-3-3.07s1.29-3.19,3.17-3.19c.76,0,1.23,.16,1.44,.27l-.19,.64c-.3-.14-.72-.25-1.22-.25-1.42,0-2.37,.91-2.37,2.5,0,1.49,.86,2.44,2.33,2.44,.48,0,.96-.1,1.28-.25l.16,.62Z"/>
      <path class="cls-1" d="M364.38,8.9c0-.51,0-.95-.04-1.36h.69l.03,.86h.04c.2-.58,.68-.95,1.21-.95,.09,0,.15,0,.22,.03v.75c-.08-.02-.16-.03-.27-.03-.56,0-.95,.42-1.06,1.02-.02,.11-.04,.23-.04,.37v2.32h-.78v-3Z"/>
      <path class="cls-1" d="M367.68,9.87c.02,1.07,.7,1.51,1.49,1.51,.57,0,.91-.1,1.21-.22l.13,.57c-.28,.13-.76,.27-1.45,.27-1.34,0-2.14-.88-2.14-2.2s.77-2.35,2.04-2.35c1.42,0,1.8,1.25,1.8,2.05,0,.16-.02,.29-.03,.37h-3.06Zm2.32-.57c0-.5-.21-1.29-1.1-1.29-.8,0-1.15,.74-1.22,1.29h2.31Zm.19-3.64l-1.1,1.29h-.57l.79-1.29h.87Z"/>
      <path class="cls-1" d="M375.51,5.51v5.27c0,.39,0,.83,.04,1.12h-.71l-.04-.76h-.02c-.24,.49-.77,.85-1.49,.85-1.05,0-1.86-.89-1.86-2.21,0-1.45,.89-2.34,1.95-2.34,.67,0,1.12,.31,1.31,.67h.02v-2.6h.79Zm-.79,3.81c0-.1,0-.23-.04-.33-.12-.5-.55-.92-1.14-.92-.82,0-1.3,.72-1.3,1.68,0,.88,.43,1.61,1.29,1.61,.53,0,1.02-.35,1.16-.95,.03-.11,.04-.22,.04-.34v-.76Z"/>
      <path class="cls-1" d="M377.7,6.32c0,.27-.19,.49-.5,.49-.28,0-.48-.22-.48-.49s.21-.5,.5-.5,.49,.22,.49,.5Zm-.88,5.58V7.54h.79v4.36h-.79Z"/>
      <path class="cls-1" d="M379.88,6.29v1.25h1.13v.6h-1.13v2.35c0,.54,.15,.85,.59,.85,.21,0,.36-.03,.46-.05l.04,.59c-.15,.06-.4,.11-.7,.11-.37,0-.67-.12-.85-.33-.23-.23-.31-.62-.31-1.13v-2.38h-.67v-.6h.67v-1.04l.77-.21Z"/>
      <path class="cls-1" d="M385.79,9.68c0,1.61-1.12,2.31-2.17,2.31-1.18,0-2.09-.86-2.09-2.24,0-1.46,.95-2.31,2.16-2.31s2.1,.91,2.1,2.24Zm-3.46,.04c0,.95,.55,1.67,1.32,1.67s1.32-.71,1.32-1.69c0-.74-.37-1.67-1.31-1.67s-1.34,.86-1.34,1.69Z"/>
    </g>
    <path class="cls-2" d="M312.79,7.88h-.38l-1.01-3.03c-.15-.46-.65-.7-1.1-.55l-8.04,2.67c-.46,.15-.7,.65-.55,1.11l1.74,5.17v.93c0,.48,.39,.87,.87,.87h8.48c.48,0,.87-.39,.87-.87v-5.42c0-.48-.39-.87-.87-.87Zm.57,.87v.45h-9.62v-.45c0-.31,.25-.57,.57-.57h8.48c.31,0,.57,.25,.58,.56,0,0,0,0,0,0h0Zm0,1.84h-9.62v-1.09h9.62v1.09Zm-11.37-2.62c-.1-.3,.06-.62,.36-.72l8.04-2.67c.3-.1,.62,.06,.72,.36l.98,2.93h-7.79c-.48,0-.87,.39-.87,.87v3.54l-1.45-4.32Zm10.8,6.76h-8.48c-.31,0-.57-.25-.57-.57v-.89s0-.04,0-.06v-2.33h9.62v3.28c0,.31-.25,.57-.57,.57,0,0,0,0,0,0Z"/>
  </g>
</svg>